<?xml version="1.0" encoding="utf-8" standalone="no"?>
<!DOCTYPE svg PUBLIC "-//W3C//DTD SVG 1.1//EN"
  "http://www.w3.org/Graphics/SVG/1.1/DTD/svg11.dtd">
<svg xmlns:xlink="http://www.w3.org/1999/xlink" width="604.405625pt" height="351.034375pt" viewBox="0 0 604.405625 351.034375" xmlns="http://www.w3.org/2000/svg" version="1.1">
 <metadata>
  <rdf:RDF xmlns:dc="http://purl.org/dc/elements/1.1/" xmlns:cc="http://creativecommons.org/ns#" xmlns:rdf="http://www.w3.org/1999/02/22-rdf-syntax-ns#">
   <cc:Work>
    <dc:type rdf:resource="http://purl.org/dc/dcmitype/StillImage"/>
    <dc:date>2026-06-18T01:10:48.194887</dc:date>
    <dc:format>image/svg+xml</dc:format>
    <dc:creator>
     <cc:Agent>
      <dc:title>Matplotlib v3.10.0, https://matplotlib.org/</dc:title>
     </cc:Agent>
    </dc:creator>
   </cc:Work>
  </rdf:RDF>
 </metadata>
 <defs>
  <style type="text/css">*{stroke-linejoin: round; stroke-linecap: butt}</style>
 </defs>
 <g id="figure_1">
  <g id="patch_1">
   <path d="M 0 351.034375 
L 604.405625 351.034375 
L 604.405625 0 
L 0 0 
z
" style="fill: #ffffff"/>
  </g>
  <g id="axes_1">
   <g id="patch_2">
    <path d="M 46.965625 313.478125 
L 597.205625 313.478125 
L 597.205625 22.318125 
L 46.965625 22.318125 
z
" style="fill: #ffffff"/>
   </g>
   <g id="patch_3">
    <path d="M 71.976534 313.478125 
L 83.092494 313.478125 
L 83.092494 311.755794 
L 71.976534 311.755794 
z
" clip-path="url(#p1f5d05da50)" style="fill: #1f77b4"/>
   </g>
   <g id="patch_4">
    <path d="M 83.092494 313.478125 
L 94.208453 313.478125 
L 94.208453 310.033464 
L 83.092494 310.033464 
z
" clip-path="url(#p1f5d05da50)" style="fill: #1f77b4"/>
   </g>
   <g id="patch_5">
    <path d="M 94.208453 313.478125 
L 105.324413 313.478125 
L 105.324413 311.755794 
L 94.208453 311.755794 
z
" clip-path="url(#p1f5d05da50)" style="fill: #1f77b4"/>
   </g>
   <g id="patch_6">
    <path d="M 105.324413 313.478125 
L 116.440372 313.478125 
L 116.440372 310.033464 
L 105.324413 310.033464 
z
" clip-path="url(#p1f5d05da50)" style="fill: #1f77b4"/>
   </g>
   <g id="patch_7">
    <path d="M 116.440372 313.478125 
L 127.556332 313.478125 
L 127.556332 306.588802 
L 116.440372 306.588802 
z
" clip-path="url(#p1f5d05da50)" style="fill: #1f77b4"/>
   </g>
   <g id="patch_8">
    <path d="M 127.556332 313.478125 
L 138.672292 313.478125 
L 138.672292 299.69948 
L 127.556332 299.69948 
z
" clip-path="url(#p1f5d05da50)" style="fill: #1f77b4"/>
   </g>
   <g id="patch_9">
    <path d="M 138.672292 313.478125 
L 149.788251 313.478125 
L 149.788251 280.753842 
L 138.672292 280.753842 
z
" clip-path="url(#p1f5d05da50)" style="fill: #1f77b4"/>
   </g>
   <g id="patch_10">
    <path d="M 149.788251 313.478125 
L 160.904211 313.478125 
L 160.904211 273.86452 
L 149.788251 273.86452 
z
" clip-path="url(#p1f5d05da50)" style="fill: #1f77b4"/>
   </g>
   <g id="patch_11">
    <path d="M 160.904211 313.478125 
L 172.02017 313.478125 
L 172.02017 266.975197 
L 160.904211 266.975197 
z
" clip-path="url(#p1f5d05da50)" style="fill: #1f77b4"/>
   </g>
   <g id="patch_12">
    <path d="M 172.02017 313.478125 
L 183.13613 313.478125 
L 183.13613 227.361591 
L 172.02017 227.361591 
z
" clip-path="url(#p1f5d05da50)" style="fill: #1f77b4"/>
   </g>
   <g id="patch_13">
    <path d="M 183.13613 313.478125 
L 194.25209 313.478125 
L 194.25209 220.472269 
L 183.13613 220.472269 
z
" clip-path="url(#p1f5d05da50)" style="fill: #1f77b4"/>
   </g>
   <g id="patch_14">
    <path d="M 194.25209 313.478125 
L 205.368049 313.478125 
L 205.368049 186.025655 
L 194.25209 186.025655 
z
" clip-path="url(#p1f5d05da50)" style="fill: #1f77b4"/>
   </g>
   <g id="patch_15">
    <path d="M 205.368049 313.478125 
L 216.484009 313.478125 
L 216.484009 167.080018 
L 205.368049 167.080018 
z
" clip-path="url(#p1f5d05da50)" style="fill: #1f77b4"/>
   </g>
   <g id="patch_16">
    <path d="M 216.484009 313.478125 
L 227.599968 313.478125 
L 227.599968 110.243106 
L 216.484009 110.243106 
z
" clip-path="url(#p1f5d05da50)" style="fill: #1f77b4"/>
   </g>
   <g id="patch_17">
    <path d="M 227.599968 313.478125 
L 238.715928 313.478125 
L 238.715928 136.078066 
L 227.599968 136.078066 
z
" clip-path="url(#p1f5d05da50)" style="fill: #1f77b4"/>
   </g>
   <g id="patch_18">
    <path d="M 238.715928 313.478125 
L 249.831888 313.478125 
L 249.831888 105.076114 
L 238.715928 105.076114 
z
" clip-path="url(#p1f5d05da50)" style="fill: #1f77b4"/>
   </g>
   <g id="patch_19">
    <path d="M 249.831888 313.478125 
L 260.947847 313.478125 
L 260.947847 36.182887 
L 249.831888 36.182887 
z
" clip-path="url(#p1f5d05da50)" style="fill: #1f77b4"/>
   </g>
   <g id="patch_20">
    <path d="M 260.947847 313.478125 
L 272.063807 313.478125 
L 272.063807 46.516871 
L 260.947847 46.516871 
z
" clip-path="url(#p1f5d05da50)" style="fill: #1f77b4"/>
   </g>
   <g id="patch_21">
    <path d="M 272.063807 313.478125 
L 283.179766 313.478125 
L 283.179766 91.297468 
L 272.063807 91.297468 
z
" clip-path="url(#p1f5d05da50)" style="fill: #1f77b4"/>
   </g>
   <g id="patch_22">
    <path d="M 283.179766 313.478125 
L 294.295726 313.478125 
L 294.295726 101.631452 
L 283.179766 101.631452 
z
" clip-path="url(#p1f5d05da50)" style="fill: #1f77b4"/>
   </g>
   <g id="patch_23">
    <path d="M 294.295726 313.478125 
L 305.411686 313.478125 
L 305.411686 89.575138 
L 294.295726 89.575138 
z
" clip-path="url(#p1f5d05da50)" style="fill: #1f77b4"/>
   </g>
   <g id="patch_24">
    <path d="M 305.411686 313.478125 
L 316.527645 313.478125 
L 316.527645 101.631452 
L 305.411686 101.631452 
z
" clip-path="url(#p1f5d05da50)" style="fill: #1f77b4"/>
   </g>
   <g id="patch_25">
    <path d="M 316.527645 313.478125 
L 327.643605 313.478125 
L 327.643605 156.746034 
L 316.527645 156.746034 
z
" clip-path="url(#p1f5d05da50)" style="fill: #1f77b4"/>
   </g>
   <g id="patch_26">
    <path d="M 327.643605 313.478125 
L 338.759564 313.478125 
L 338.759564 149.856711 
L 327.643605 149.856711 
z
" clip-path="url(#p1f5d05da50)" style="fill: #1f77b4"/>
   </g>
   <g id="patch_27">
    <path d="M 338.759564 313.478125 
L 349.875524 313.478125 
L 349.875524 204.971293 
L 338.759564 204.971293 
z
" clip-path="url(#p1f5d05da50)" style="fill: #1f77b4"/>
   </g>
   <g id="patch_28">
    <path d="M 349.875524 313.478125 
L 360.991484 313.478125 
L 360.991484 229.083922 
L 349.875524 229.083922 
z
" clip-path="url(#p1f5d05da50)" style="fill: #1f77b4"/>
   </g>
   <g id="patch_29">
    <path d="M 360.991484 313.478125 
L 372.107443 313.478125 
L 372.107443 234.250914 
L 360.991484 234.250914 
z
" clip-path="url(#p1f5d05da50)" style="fill: #1f77b4"/>
   </g>
   <g id="patch_30">
    <path d="M 372.107443 313.478125 
L 383.223403 313.478125 
L 383.223403 260.085874 
L 372.107443 260.085874 
z
" clip-path="url(#p1f5d05da50)" style="fill: #1f77b4"/>
   </g>
   <g id="patch_31">
    <path d="M 383.223403 313.478125 
L 394.339362 313.478125 
L 394.339362 253.196552 
L 383.223403 253.196552 
z
" clip-path="url(#p1f5d05da50)" style="fill: #1f77b4"/>
   </g>
   <g id="patch_32">
    <path d="M 394.339362 313.478125 
L 405.455322 313.478125 
L 405.455322 268.697528 
L 394.339362 268.697528 
z
" clip-path="url(#p1f5d05da50)" style="fill: #1f77b4"/>
   </g>
   <g id="patch_33">
    <path d="M 405.455322 313.478125 
L 416.571282 313.478125 
L 416.571282 279.031512 
L 405.455322 279.031512 
z
" clip-path="url(#p1f5d05da50)" style="fill: #1f77b4"/>
   </g>
   <g id="patch_34">
    <path d="M 416.571282 313.478125 
L 427.687241 313.478125 
L 427.687241 303.144141 
L 416.571282 303.144141 
z
" clip-path="url(#p1f5d05da50)" style="fill: #1f77b4"/>
   </g>
   <g id="patch_35">
    <path d="M 427.687241 313.478125 
L 438.803201 313.478125 
L 438.803201 303.144141 
L 427.687241 303.144141 
z
" clip-path="url(#p1f5d05da50)" style="fill: #1f77b4"/>
   </g>
   <g id="patch_36">
    <path d="M 438.803201 313.478125 
L 449.91916 313.478125 
L 449.91916 301.42181 
L 438.803201 301.42181 
z
" clip-path="url(#p1f5d05da50)" style="fill: #1f77b4"/>
   </g>
   <g id="patch_37">
    <path d="M 449.91916 313.478125 
L 461.03512 313.478125 
L 461.03512 310.033464 
L 449.91916 310.033464 
z
" clip-path="url(#p1f5d05da50)" style="fill: #1f77b4"/>
   </g>
   <g id="patch_38">
    <path d="M 461.03512 313.478125 
L 472.15108 313.478125 
L 472.15108 308.311133 
L 461.03512 308.311133 
z
" clip-path="url(#p1f5d05da50)" style="fill: #1f77b4"/>
   </g>
   <g id="patch_39">
    <path d="M 472.15108 313.478125 
L 483.267039 313.478125 
L 483.267039 310.033464 
L 472.15108 310.033464 
z
" clip-path="url(#p1f5d05da50)" style="fill: #1f77b4"/>
   </g>
   <g id="patch_40">
    <path d="M 483.267039 313.478125 
L 494.382999 313.478125 
L 494.382999 311.755794 
L 483.267039 311.755794 
z
" clip-path="url(#p1f5d05da50)" style="fill: #1f77b4"/>
   </g>
   <g id="patch_41">
    <path d="M 494.382999 313.478125 
L 505.498958 313.478125 
L 505.498958 308.311133 
L 494.382999 308.311133 
z
" clip-path="url(#p1f5d05da50)" style="fill: #1f77b4"/>
   </g>
   <g id="patch_42">
    <path d="M 505.498958 313.478125 
L 516.614918 313.478125 
L 516.614918 313.478125 
L 505.498958 313.478125 
z
" clip-path="url(#p1f5d05da50)" style="fill: #1f77b4"/>
   </g>
   <g id="patch_43">
    <path d="M 516.614918 313.478125 
L 527.730878 313.478125 
L 527.730878 313.478125 
L 516.614918 313.478125 
z
" clip-path="url(#p1f5d05da50)" style="fill: #1f77b4"/>
   </g>
   <g id="patch_44">
    <path d="M 527.730878 313.478125 
L 538.846837 313.478125 
L 538.846837 313.478125 
L 527.730878 313.478125 
z
" clip-path="url(#p1f5d05da50)" style="fill: #1f77b4"/>
   </g>
   <g id="patch_45">
    <path d="M 538.846837 313.478125 
L 549.962797 313.478125 
L 549.962797 313.478125 
L 538.846837 313.478125 
z
" clip-path="url(#p1f5d05da50)" style="fill: #1f77b4"/>
   </g>
   <g id="patch_46">
    <path d="M 549.962797 313.478125 
L 561.078756 313.478125 
L 561.078756 313.478125 
L 549.962797 313.478125 
z
" clip-path="url(#p1f5d05da50)" style="fill: #1f77b4"/>
   </g>
   <g id="patch_47">
    <path d="M 561.078756 313.478125 
L 572.194716 313.478125 
L 572.194716 311.755794 
L 561.078756 311.755794 
z
" clip-path="url(#p1f5d05da50)" style="fill: #1f77b4"/>
   </g>
   <g id="matplotlib.axis_1">
    <g id="xtick_1">
     <g id="line2d_1">
      <path d="M 94.374526 313.478125 
L 94.374526 22.318125 
" clip-path="url(#p1f5d05da50)" style="fill: none; stroke: #b0b0b0; stroke-opacity: 0.2; stroke-width: 0.8; stroke-linecap: square"/>
     </g>
     <g id="line2d_2">
      <defs>
       <path id="mc02099afc4" d="M 0 0 
L 0 3.5 
" style="stroke: #000000; stroke-width: 0.8"/>
      </defs>
      <g>
       <use xlink:href="#mc02099afc4" x="94.374526" y="313.478125" style="stroke: #000000; stroke-width: 0.8"/>
      </g>
     </g>
     <g id="text_1">
      <!-- −0.4 -->
      <g transform="translate(82.23312 328.076563) scale(0.1 -0.1)">
       <defs>
        <path id="DejaVuSans-2212" d="M 678 2272 
L 4684 2272 
L 4684 1741 
L 678 1741 
L 678 2272 
z
" transform="scale(0.015625)"/>
        <path id="DejaVuSans-30" d="M 2034 4250 
Q 1547 4250 1301 3770 
Q 1056 3291 1056 2328 
Q 1056 1369 1301 889 
Q 1547 409 2034 409 
Q 2525 409 2770 889 
Q 3016 1369 3016 2328 
Q 3016 3291 2770 3770 
Q 2525 4250 2034 4250 
z
M 2034 4750 
Q 2819 4750 3233 4129 
Q 3647 3509 3647 2328 
Q 3647 1150 3233 529 
Q 2819 -91 2034 -91 
Q 1250 -91 836 529 
Q 422 1150 422 2328 
Q 422 3509 836 4129 
Q 1250 4750 2034 4750 
z
" transform="scale(0.015625)"/>
        <path id="DejaVuSans-2e" d="M 684 794 
L 1344 794 
L 1344 0 
L 684 0 
L 684 794 
z
" transform="scale(0.015625)"/>
        <path id="DejaVuSans-34" d="M 2419 4116 
L 825 1625 
L 2419 1625 
L 2419 4116 
z
M 2253 4666 
L 3047 4666 
L 3047 1625 
L 3713 1625 
L 3713 1100 
L 3047 1100 
L 3047 0 
L 2419 0 
L 2419 1100 
L 313 1100 
L 313 1709 
L 2253 4666 
z
" transform="scale(0.015625)"/>
       </defs>
       <use xlink:href="#DejaVuSans-2212"/>
       <use xlink:href="#DejaVuSans-30" transform="translate(83.789062 0)"/>
       <use xlink:href="#DejaVuSans-2e" transform="translate(147.412109 0)"/>
       <use xlink:href="#DejaVuSans-34" transform="translate(179.199219 0)"/>
      </g>
     </g>
    </g>
    <g id="xtick_2">
     <g id="line2d_3">
      <path d="M 160.325683 313.478125 
L 160.325683 22.318125 
" clip-path="url(#p1f5d05da50)" style="fill: none; stroke: #b0b0b0; stroke-opacity: 0.2; stroke-width: 0.8; stroke-linecap: square"/>
     </g>
     <g id="line2d_4">
      <g>
       <use xlink:href="#mc02099afc4" x="160.325683" y="313.478125" style="stroke: #000000; stroke-width: 0.8"/>
      </g>
     </g>
     <g id="text_2">
      <!-- −0.3 -->
      <g transform="translate(148.184277 328.076563) scale(0.1 -0.1)">
       <defs>
        <path id="DejaVuSans-33" d="M 2597 2516 
Q 3050 2419 3304 2112 
Q 3559 1806 3559 1356 
Q 3559 666 3084 287 
Q 2609 -91 1734 -91 
Q 1441 -91 1130 -33 
Q 819 25 488 141 
L 488 750 
Q 750 597 1062 519 
Q 1375 441 1716 441 
Q 2309 441 2620 675 
Q 2931 909 2931 1356 
Q 2931 1769 2642 2001 
Q 2353 2234 1838 2234 
L 1294 2234 
L 1294 2753 
L 1863 2753 
Q 2328 2753 2575 2939 
Q 2822 3125 2822 3475 
Q 2822 3834 2567 4026 
Q 2313 4219 1838 4219 
Q 1578 4219 1281 4162 
Q 984 4106 628 3988 
L 628 4550 
Q 988 4650 1302 4700 
Q 1616 4750 1894 4750 
Q 2613 4750 3031 4423 
Q 3450 4097 3450 3541 
Q 3450 3153 3228 2886 
Q 3006 2619 2597 2516 
z
" transform="scale(0.015625)"/>
       </defs>
       <use xlink:href="#DejaVuSans-2212"/>
       <use xlink:href="#DejaVuSans-30" transform="translate(83.789062 0)"/>
       <use xlink:href="#DejaVuSans-2e" transform="translate(147.412109 0)"/>
       <use xlink:href="#DejaVuSans-33" transform="translate(179.199219 0)"/>
      </g>
     </g>
    </g>
    <g id="xtick_3">
     <g id="line2d_5">
      <path d="M 226.276839 313.478125 
L 226.276839 22.318125 
" clip-path="url(#p1f5d05da50)" style="fill: none; stroke: #b0b0b0; stroke-opacity: 0.2; stroke-width: 0.8; stroke-linecap: square"/>
     </g>
     <g id="line2d_6">
      <g>
       <use xlink:href="#mc02099afc4" x="226.276839" y="313.478125" style="stroke: #000000; stroke-width: 0.8"/>
      </g>
     </g>
     <g id="text_3">
      <!-- −0.2 -->
      <g transform="translate(214.135433 328.076563) scale(0.1 -0.1)">
       <defs>
        <path id="DejaVuSans-32" d="M 1228 531 
L 3431 531 
L 3431 0 
L 469 0 
L 469 531 
Q 828 903 1448 1529 
Q 2069 2156 2228 2338 
Q 2531 2678 2651 2914 
Q 2772 3150 2772 3378 
Q 2772 3750 2511 3984 
Q 2250 4219 1831 4219 
Q 1534 4219 1204 4116 
Q 875 4013 500 3803 
L 500 4441 
Q 881 4594 1212 4672 
Q 1544 4750 1819 4750 
Q 2544 4750 2975 4387 
Q 3406 4025 3406 3419 
Q 3406 3131 3298 2873 
Q 3191 2616 2906 2266 
Q 2828 2175 2409 1742 
Q 1991 1309 1228 531 
z
" transform="scale(0.015625)"/>
       </defs>
       <use xlink:href="#DejaVuSans-2212"/>
       <use xlink:href="#DejaVuSans-30" transform="translate(83.789062 0)"/>
       <use xlink:href="#DejaVuSans-2e" transform="translate(147.412109 0)"/>
       <use xlink:href="#DejaVuSans-32" transform="translate(179.199219 0)"/>
      </g>
     </g>
    </g>
    <g id="xtick_4">
     <g id="line2d_7">
      <path d="M 292.227996 313.478125 
L 292.227996 22.318125 
" clip-path="url(#p1f5d05da50)" style="fill: none; stroke: #b0b0b0; stroke-opacity: 0.2; stroke-width: 0.8; stroke-linecap: square"/>
     </g>
     <g id="line2d_8">
      <g>
       <use xlink:href="#mc02099afc4" x="292.227996" y="313.478125" style="stroke: #000000; stroke-width: 0.8"/>
      </g>
     </g>
     <g id="text_4">
      <!-- −0.1 -->
      <g transform="translate(280.08659 328.076563) scale(0.1 -0.1)">
       <defs>
        <path id="DejaVuSans-31" d="M 794 531 
L 1825 531 
L 1825 4091 
L 703 3866 
L 703 4441 
L 1819 4666 
L 2450 4666 
L 2450 531 
L 3481 531 
L 3481 0 
L 794 0 
L 794 531 
z
" transform="scale(0.015625)"/>
       </defs>
       <use xlink:href="#DejaVuSans-2212"/>
       <use xlink:href="#DejaVuSans-30" transform="translate(83.789062 0)"/>
       <use xlink:href="#DejaVuSans-2e" transform="translate(147.412109 0)"/>
       <use xlink:href="#DejaVuSans-31" transform="translate(179.199219 0)"/>
      </g>
     </g>
    </g>
    <g id="xtick_5">
     <g id="line2d_9">
      <path d="M 358.179152 313.478125 
L 358.179152 22.318125 
" clip-path="url(#p1f5d05da50)" style="fill: none; stroke: #b0b0b0; stroke-opacity: 0.2; stroke-width: 0.8; stroke-linecap: square"/>
     </g>
     <g id="line2d_10">
      <g>
       <use xlink:href="#mc02099afc4" x="358.179152" y="313.478125" style="stroke: #000000; stroke-width: 0.8"/>
      </g>
     </g>
     <g id="text_5">
      <!-- 0.0 -->
      <g transform="translate(350.22759 328.076563) scale(0.1 -0.1)">
       <use xlink:href="#DejaVuSans-30"/>
       <use xlink:href="#DejaVuSans-2e" transform="translate(63.623047 0)"/>
       <use xlink:href="#DejaVuSans-30" transform="translate(95.410156 0)"/>
      </g>
     </g>
    </g>
    <g id="xtick_6">
     <g id="line2d_11">
      <path d="M 424.130309 313.478125 
L 424.130309 22.318125 
" clip-path="url(#p1f5d05da50)" style="fill: none; stroke: #b0b0b0; stroke-opacity: 0.2; stroke-width: 0.8; stroke-linecap: square"/>
     </g>
     <g id="line2d_12">
      <g>
       <use xlink:href="#mc02099afc4" x="424.130309" y="313.478125" style="stroke: #000000; stroke-width: 0.8"/>
      </g>
     </g>
     <g id="text_6">
      <!-- 0.1 -->
      <g transform="translate(416.178746 328.076563) scale(0.1 -0.1)">
       <use xlink:href="#DejaVuSans-30"/>
       <use xlink:href="#DejaVuSans-2e" transform="translate(63.623047 0)"/>
       <use xlink:href="#DejaVuSans-31" transform="translate(95.410156 0)"/>
      </g>
     </g>
    </g>
    <g id="xtick_7">
     <g id="line2d_13">
      <path d="M 490.081465 313.478125 
L 490.081465 22.318125 
" clip-path="url(#p1f5d05da50)" style="fill: none; stroke: #b0b0b0; stroke-opacity: 0.2; stroke-width: 0.8; stroke-linecap: square"/>
     </g>
     <g id="line2d_14">
      <g>
       <use xlink:href="#mc02099afc4" x="490.081465" y="313.478125" style="stroke: #000000; stroke-width: 0.8"/>
      </g>
     </g>
     <g id="text_7">
      <!-- 0.2 -->
      <g transform="translate(482.129903 328.076563) scale(0.1 -0.1)">
       <use xlink:href="#DejaVuSans-30"/>
       <use xlink:href="#DejaVuSans-2e" transform="translate(63.623047 0)"/>
       <use xlink:href="#DejaVuSans-32" transform="translate(95.410156 0)"/>
      </g>
     </g>
    </g>
    <g id="xtick_8">
     <g id="line2d_15">
      <path d="M 556.032622 313.478125 
L 556.032622 22.318125 
" clip-path="url(#p1f5d05da50)" style="fill: none; stroke: #b0b0b0; stroke-opacity: 0.2; stroke-width: 0.8; stroke-linecap: square"/>
     </g>
     <g id="line2d_16">
      <g>
       <use xlink:href="#mc02099afc4" x="556.032622" y="313.478125" style="stroke: #000000; stroke-width: 0.8"/>
      </g>
     </g>
     <g id="text_8">
      <!-- 0.3 -->
      <g transform="translate(548.081059 328.076563) scale(0.1 -0.1)">
       <use xlink:href="#DejaVuSans-30"/>
       <use xlink:href="#DejaVuSans-2e" transform="translate(63.623047 0)"/>
       <use xlink:href="#DejaVuSans-33" transform="translate(95.410156 0)"/>
      </g>
     </g>
    </g>
    <g id="text_9">
     <!-- Bootstrapped total return -->
     <g transform="translate(258.396562 341.754687) scale(0.1 -0.1)">
      <defs>
       <path id="DejaVuSans-42" d="M 1259 2228 
L 1259 519 
L 2272 519 
Q 2781 519 3026 730 
Q 3272 941 3272 1375 
Q 3272 1813 3026 2020 
Q 2781 2228 2272 2228 
L 1259 2228 
z
M 1259 4147 
L 1259 2741 
L 2194 2741 
Q 2656 2741 2882 2914 
Q 3109 3088 3109 3444 
Q 3109 3797 2882 3972 
Q 2656 4147 2194 4147 
L 1259 4147 
z
M 628 4666 
L 2241 4666 
Q 2963 4666 3353 4366 
Q 3744 4066 3744 3513 
Q 3744 3084 3544 2831 
Q 3344 2578 2956 2516 
Q 3422 2416 3680 2098 
Q 3938 1781 3938 1306 
Q 3938 681 3513 340 
Q 3088 0 2303 0 
L 628 0 
L 628 4666 
z
" transform="scale(0.015625)"/>
       <path id="DejaVuSans-6f" d="M 1959 3097 
Q 1497 3097 1228 2736 
Q 959 2375 959 1747 
Q 959 1119 1226 758 
Q 1494 397 1959 397 
Q 2419 397 2687 759 
Q 2956 1122 2956 1747 
Q 2956 2369 2687 2733 
Q 2419 3097 1959 3097 
z
M 1959 3584 
Q 2709 3584 3137 3096 
Q 3566 2609 3566 1747 
Q 3566 888 3137 398 
Q 2709 -91 1959 -91 
Q 1206 -91 779 398 
Q 353 888 353 1747 
Q 353 2609 779 3096 
Q 1206 3584 1959 3584 
z
" transform="scale(0.015625)"/>
       <path id="DejaVuSans-74" d="M 1172 4494 
L 1172 3500 
L 2356 3500 
L 2356 3053 
L 1172 3053 
L 1172 1153 
Q 1172 725 1289 603 
Q 1406 481 1766 481 
L 2356 481 
L 2356 0 
L 1766 0 
Q 1100 0 847 248 
Q 594 497 594 1153 
L 594 3053 
L 172 3053 
L 172 3500 
L 594 3500 
L 594 4494 
L 1172 4494 
z
" transform="scale(0.015625)"/>
       <path id="DejaVuSans-73" d="M 2834 3397 
L 2834 2853 
Q 2591 2978 2328 3040 
Q 2066 3103 1784 3103 
Q 1356 3103 1142 2972 
Q 928 2841 928 2578 
Q 928 2378 1081 2264 
Q 1234 2150 1697 2047 
L 1894 2003 
Q 2506 1872 2764 1633 
Q 3022 1394 3022 966 
Q 3022 478 2636 193 
Q 2250 -91 1575 -91 
Q 1294 -91 989 -36 
Q 684 19 347 128 
L 347 722 
Q 666 556 975 473 
Q 1284 391 1588 391 
Q 1994 391 2212 530 
Q 2431 669 2431 922 
Q 2431 1156 2273 1281 
Q 2116 1406 1581 1522 
L 1381 1569 
Q 847 1681 609 1914 
Q 372 2147 372 2553 
Q 372 3047 722 3315 
Q 1072 3584 1716 3584 
Q 2034 3584 2315 3537 
Q 2597 3491 2834 3397 
z
" transform="scale(0.015625)"/>
       <path id="DejaVuSans-72" d="M 2631 2963 
Q 2534 3019 2420 3045 
Q 2306 3072 2169 3072 
Q 1681 3072 1420 2755 
Q 1159 2438 1159 1844 
L 1159 0 
L 581 0 
L 581 3500 
L 1159 3500 
L 1159 2956 
Q 1341 3275 1631 3429 
Q 1922 3584 2338 3584 
Q 2397 3584 2469 3576 
Q 2541 3569 2628 3553 
L 2631 2963 
z
" transform="scale(0.015625)"/>
       <path id="DejaVuSans-61" d="M 2194 1759 
Q 1497 1759 1228 1600 
Q 959 1441 959 1056 
Q 959 750 1161 570 
Q 1363 391 1709 391 
Q 2188 391 2477 730 
Q 2766 1069 2766 1631 
L 2766 1759 
L 2194 1759 
z
M 3341 1997 
L 3341 0 
L 2766 0 
L 2766 531 
Q 2569 213 2275 61 
Q 1981 -91 1556 -91 
Q 1019 -91 701 211 
Q 384 513 384 1019 
Q 384 1609 779 1909 
Q 1175 2209 1959 2209 
L 2766 2209 
L 2766 2266 
Q 2766 2663 2505 2880 
Q 2244 3097 1772 3097 
Q 1472 3097 1187 3025 
Q 903 2953 641 2809 
L 641 3341 
Q 956 3463 1253 3523 
Q 1550 3584 1831 3584 
Q 2591 3584 2966 3190 
Q 3341 2797 3341 1997 
z
" transform="scale(0.015625)"/>
       <path id="DejaVuSans-70" d="M 1159 525 
L 1159 -1331 
L 581 -1331 
L 581 3500 
L 1159 3500 
L 1159 2969 
Q 1341 3281 1617 3432 
Q 1894 3584 2278 3584 
Q 2916 3584 3314 3078 
Q 3713 2572 3713 1747 
Q 3713 922 3314 415 
Q 2916 -91 2278 -91 
Q 1894 -91 1617 61 
Q 1341 213 1159 525 
z
M 3116 1747 
Q 3116 2381 2855 2742 
Q 2594 3103 2138 3103 
Q 1681 3103 1420 2742 
Q 1159 2381 1159 1747 
Q 1159 1113 1420 752 
Q 1681 391 2138 391 
Q 2594 391 2855 752 
Q 3116 1113 3116 1747 
z
" transform="scale(0.015625)"/>
       <path id="DejaVuSans-65" d="M 3597 1894 
L 3597 1613 
L 953 1613 
Q 991 1019 1311 708 
Q 1631 397 2203 397 
Q 2534 397 2845 478 
Q 3156 559 3463 722 
L 3463 178 
Q 3153 47 2828 -22 
Q 2503 -91 2169 -91 
Q 1331 -91 842 396 
Q 353 884 353 1716 
Q 353 2575 817 3079 
Q 1281 3584 2069 3584 
Q 2775 3584 3186 3129 
Q 3597 2675 3597 1894 
z
M 3022 2063 
Q 3016 2534 2758 2815 
Q 2500 3097 2075 3097 
Q 1594 3097 1305 2825 
Q 1016 2553 972 2059 
L 3022 2063 
z
" transform="scale(0.015625)"/>
       <path id="DejaVuSans-64" d="M 2906 2969 
L 2906 4863 
L 3481 4863 
L 3481 0 
L 2906 0 
L 2906 525 
Q 2725 213 2448 61 
Q 2172 -91 1784 -91 
Q 1150 -91 751 415 
Q 353 922 353 1747 
Q 353 2572 751 3078 
Q 1150 3584 1784 3584 
Q 2172 3584 2448 3432 
Q 2725 3281 2906 2969 
z
M 947 1747 
Q 947 1113 1208 752 
Q 1469 391 1925 391 
Q 2381 391 2643 752 
Q 2906 1113 2906 1747 
Q 2906 2381 2643 2742 
Q 2381 3103 1925 3103 
Q 1469 3103 1208 2742 
Q 947 2381 947 1747 
z
" transform="scale(0.015625)"/>
       <path id="DejaVuSans-20" transform="scale(0.015625)"/>
       <path id="DejaVuSans-6c" d="M 603 4863 
L 1178 4863 
L 1178 0 
L 603 0 
L 603 4863 
z
" transform="scale(0.015625)"/>
       <path id="DejaVuSans-75" d="M 544 1381 
L 544 3500 
L 1119 3500 
L 1119 1403 
Q 1119 906 1312 657 
Q 1506 409 1894 409 
Q 2359 409 2629 706 
Q 2900 1003 2900 1516 
L 2900 3500 
L 3475 3500 
L 3475 0 
L 2900 0 
L 2900 538 
Q 2691 219 2414 64 
Q 2138 -91 1772 -91 
Q 1169 -91 856 284 
Q 544 659 544 1381 
z
M 1991 3584 
L 1991 3584 
z
" transform="scale(0.015625)"/>
       <path id="DejaVuSans-6e" d="M 3513 2113 
L 3513 0 
L 2938 0 
L 2938 2094 
Q 2938 2591 2744 2837 
Q 2550 3084 2163 3084 
Q 1697 3084 1428 2787 
Q 1159 2491 1159 1978 
L 1159 0 
L 581 0 
L 581 3500 
L 1159 3500 
L 1159 2956 
Q 1366 3272 1645 3428 
Q 1925 3584 2291 3584 
Q 2894 3584 3203 3211 
Q 3513 2838 3513 2113 
z
" transform="scale(0.015625)"/>
      </defs>
      <use xlink:href="#DejaVuSans-42"/>
      <use xlink:href="#DejaVuSans-6f" transform="translate(68.603516 0)"/>
      <use xlink:href="#DejaVuSans-6f" transform="translate(129.785156 0)"/>
      <use xlink:href="#DejaVuSans-74" transform="translate(190.966797 0)"/>
      <use xlink:href="#DejaVuSans-73" transform="translate(230.175781 0)"/>
      <use xlink:href="#DejaVuSans-74" transform="translate(282.275391 0)"/>
      <use xlink:href="#DejaVuSans-72" transform="translate(321.484375 0)"/>
      <use xlink:href="#DejaVuSans-61" transform="translate(362.597656 0)"/>
      <use xlink:href="#DejaVuSans-70" transform="translate(423.876953 0)"/>
      <use xlink:href="#DejaVuSans-70" transform="translate(487.353516 0)"/>
      <use xlink:href="#DejaVuSans-65" transform="translate(550.830078 0)"/>
      <use xlink:href="#DejaVuSans-64" transform="translate(612.353516 0)"/>
      <use xlink:href="#DejaVuSans-20" transform="translate(675.830078 0)"/>
      <use xlink:href="#DejaVuSans-74" transform="translate(707.617188 0)"/>
      <use xlink:href="#DejaVuSans-6f" transform="translate(746.826172 0)"/>
      <use xlink:href="#DejaVuSans-74" transform="translate(808.007812 0)"/>
      <use xlink:href="#DejaVuSans-61" transform="translate(847.216797 0)"/>
      <use xlink:href="#DejaVuSans-6c" transform="translate(908.496094 0)"/>
      <use xlink:href="#DejaVuSans-20" transform="translate(936.279297 0)"/>
      <use xlink:href="#DejaVuSans-72" transform="translate(968.066406 0)"/>
      <use xlink:href="#DejaVuSans-65" transform="translate(1006.929688 0)"/>
      <use xlink:href="#DejaVuSans-74" transform="translate(1068.453125 0)"/>
      <use xlink:href="#DejaVuSans-75" transform="translate(1107.662109 0)"/>
      <use xlink:href="#DejaVuSans-72" transform="translate(1171.041016 0)"/>
      <use xlink:href="#DejaVuSans-6e" transform="translate(1210.404297 0)"/>
     </g>
    </g>
   </g>
   <g id="matplotlib.axis_2">
    <g id="ytick_1">
     <g id="line2d_17">
      <path d="M 46.965625 313.478125 
L 597.205625 313.478125 
" clip-path="url(#p1f5d05da50)" style="fill: none; stroke: #b0b0b0; stroke-opacity: 0.2; stroke-width: 0.8; stroke-linecap: square"/>
     </g>
     <g id="line2d_18">
      <defs>
       <path id="mdaea95a712" d="M 0 0 
L -3.5 0 
" style="stroke: #000000; stroke-width: 0.8"/>
      </defs>
      <g>
       <use xlink:href="#mdaea95a712" x="46.965625" y="313.478125" style="stroke: #000000; stroke-width: 0.8"/>
      </g>
     </g>
     <g id="text_10">
      <!-- 0 -->
      <g transform="translate(33.603125 317.277344) scale(0.1 -0.1)">
       <use xlink:href="#DejaVuSans-30"/>
      </g>
     </g>
    </g>
    <g id="ytick_2">
     <g id="line2d_19">
      <path d="M 46.965625 279.031512 
L 597.205625 279.031512 
" clip-path="url(#p1f5d05da50)" style="fill: none; stroke: #b0b0b0; stroke-opacity: 0.2; stroke-width: 0.8; stroke-linecap: square"/>
     </g>
     <g id="line2d_20">
      <g>
       <use xlink:href="#mdaea95a712" x="46.965625" y="279.031512" style="stroke: #000000; stroke-width: 0.8"/>
      </g>
     </g>
     <g id="text_11">
      <!-- 20 -->
      <g transform="translate(27.240625 282.83073) scale(0.1 -0.1)">
       <use xlink:href="#DejaVuSans-32"/>
       <use xlink:href="#DejaVuSans-30" transform="translate(63.623047 0)"/>
      </g>
     </g>
    </g>
    <g id="ytick_3">
     <g id="line2d_21">
      <path d="M 46.965625 244.584898 
L 597.205625 244.584898 
" clip-path="url(#p1f5d05da50)" style="fill: none; stroke: #b0b0b0; stroke-opacity: 0.2; stroke-width: 0.8; stroke-linecap: square"/>
     </g>
     <g id="line2d_22">
      <g>
       <use xlink:href="#mdaea95a712" x="46.965625" y="244.584898" style="stroke: #000000; stroke-width: 0.8"/>
      </g>
     </g>
     <g id="text_12">
      <!-- 40 -->
      <g transform="translate(27.240625 248.384117) scale(0.1 -0.1)">
       <use xlink:href="#DejaVuSans-34"/>
       <use xlink:href="#DejaVuSans-30" transform="translate(63.623047 0)"/>
      </g>
     </g>
    </g>
    <g id="ytick_4">
     <g id="line2d_23">
      <path d="M 46.965625 210.138285 
L 597.205625 210.138285 
" clip-path="url(#p1f5d05da50)" style="fill: none; stroke: #b0b0b0; stroke-opacity: 0.2; stroke-width: 0.8; stroke-linecap: square"/>
     </g>
     <g id="line2d_24">
      <g>
       <use xlink:href="#mdaea95a712" x="46.965625" y="210.138285" style="stroke: #000000; stroke-width: 0.8"/>
      </g>
     </g>
     <g id="text_13">
      <!-- 60 -->
      <g transform="translate(27.240625 213.937503) scale(0.1 -0.1)">
       <defs>
        <path id="DejaVuSans-36" d="M 2113 2584 
Q 1688 2584 1439 2293 
Q 1191 2003 1191 1497 
Q 1191 994 1439 701 
Q 1688 409 2113 409 
Q 2538 409 2786 701 
Q 3034 994 3034 1497 
Q 3034 2003 2786 2293 
Q 2538 2584 2113 2584 
z
M 3366 4563 
L 3366 3988 
Q 3128 4100 2886 4159 
Q 2644 4219 2406 4219 
Q 1781 4219 1451 3797 
Q 1122 3375 1075 2522 
Q 1259 2794 1537 2939 
Q 1816 3084 2150 3084 
Q 2853 3084 3261 2657 
Q 3669 2231 3669 1497 
Q 3669 778 3244 343 
Q 2819 -91 2113 -91 
Q 1303 -91 875 529 
Q 447 1150 447 2328 
Q 447 3434 972 4092 
Q 1497 4750 2381 4750 
Q 2619 4750 2861 4703 
Q 3103 4656 3366 4563 
z
" transform="scale(0.015625)"/>
       </defs>
       <use xlink:href="#DejaVuSans-36"/>
       <use xlink:href="#DejaVuSans-30" transform="translate(63.623047 0)"/>
      </g>
     </g>
    </g>
    <g id="ytick_5">
     <g id="line2d_25">
      <path d="M 46.965625 175.691671 
L 597.205625 175.691671 
" clip-path="url(#p1f5d05da50)" style="fill: none; stroke: #b0b0b0; stroke-opacity: 0.2; stroke-width: 0.8; stroke-linecap: square"/>
     </g>
     <g id="line2d_26">
      <g>
       <use xlink:href="#mdaea95a712" x="46.965625" y="175.691671" style="stroke: #000000; stroke-width: 0.8"/>
      </g>
     </g>
     <g id="text_14">
      <!-- 80 -->
      <g transform="translate(27.240625 179.49089) scale(0.1 -0.1)">
       <defs>
        <path id="DejaVuSans-38" d="M 2034 2216 
Q 1584 2216 1326 1975 
Q 1069 1734 1069 1313 
Q 1069 891 1326 650 
Q 1584 409 2034 409 
Q 2484 409 2743 651 
Q 3003 894 3003 1313 
Q 3003 1734 2745 1975 
Q 2488 2216 2034 2216 
z
M 1403 2484 
Q 997 2584 770 2862 
Q 544 3141 544 3541 
Q 544 4100 942 4425 
Q 1341 4750 2034 4750 
Q 2731 4750 3128 4425 
Q 3525 4100 3525 3541 
Q 3525 3141 3298 2862 
Q 3072 2584 2669 2484 
Q 3125 2378 3379 2068 
Q 3634 1759 3634 1313 
Q 3634 634 3220 271 
Q 2806 -91 2034 -91 
Q 1263 -91 848 271 
Q 434 634 434 1313 
Q 434 1759 690 2068 
Q 947 2378 1403 2484 
z
M 1172 3481 
Q 1172 3119 1398 2916 
Q 1625 2713 2034 2713 
Q 2441 2713 2670 2916 
Q 2900 3119 2900 3481 
Q 2900 3844 2670 4047 
Q 2441 4250 2034 4250 
Q 1625 4250 1398 4047 
Q 1172 3844 1172 3481 
z
" transform="scale(0.015625)"/>
       </defs>
       <use xlink:href="#DejaVuSans-38"/>
       <use xlink:href="#DejaVuSans-30" transform="translate(63.623047 0)"/>
      </g>
     </g>
    </g>
    <g id="ytick_6">
     <g id="line2d_27">
      <path d="M 46.965625 141.245058 
L 597.205625 141.245058 
" clip-path="url(#p1f5d05da50)" style="fill: none; stroke: #b0b0b0; stroke-opacity: 0.2; stroke-width: 0.8; stroke-linecap: square"/>
     </g>
     <g id="line2d_28">
      <g>
       <use xlink:href="#mdaea95a712" x="46.965625" y="141.245058" style="stroke: #000000; stroke-width: 0.8"/>
      </g>
     </g>
     <g id="text_15">
      <!-- 100 -->
      <g transform="translate(20.878125 145.044277) scale(0.1 -0.1)">
       <use xlink:href="#DejaVuSans-31"/>
       <use xlink:href="#DejaVuSans-30" transform="translate(63.623047 0)"/>
       <use xlink:href="#DejaVuSans-30" transform="translate(127.246094 0)"/>
      </g>
     </g>
    </g>
    <g id="ytick_7">
     <g id="line2d_29">
      <path d="M 46.965625 106.798444 
L 597.205625 106.798444 
" clip-path="url(#p1f5d05da50)" style="fill: none; stroke: #b0b0b0; stroke-opacity: 0.2; stroke-width: 0.8; stroke-linecap: square"/>
     </g>
     <g id="line2d_30">
      <g>
       <use xlink:href="#mdaea95a712" x="46.965625" y="106.798444" style="stroke: #000000; stroke-width: 0.8"/>
      </g>
     </g>
     <g id="text_16">
      <!-- 120 -->
      <g transform="translate(20.878125 110.597663) scale(0.1 -0.1)">
       <use xlink:href="#DejaVuSans-31"/>
       <use xlink:href="#DejaVuSans-32" transform="translate(63.623047 0)"/>
       <use xlink:href="#DejaVuSans-30" transform="translate(127.246094 0)"/>
      </g>
     </g>
    </g>
    <g id="ytick_8">
     <g id="line2d_31">
      <path d="M 46.965625 72.351831 
L 597.205625 72.351831 
" clip-path="url(#p1f5d05da50)" style="fill: none; stroke: #b0b0b0; stroke-opacity: 0.2; stroke-width: 0.8; stroke-linecap: square"/>
     </g>
     <g id="line2d_32">
      <g>
       <use xlink:href="#mdaea95a712" x="46.965625" y="72.351831" style="stroke: #000000; stroke-width: 0.8"/>
      </g>
     </g>
     <g id="text_17">
      <!-- 140 -->
      <g transform="translate(20.878125 76.15105) scale(0.1 -0.1)">
       <use xlink:href="#DejaVuSans-31"/>
       <use xlink:href="#DejaVuSans-34" transform="translate(63.623047 0)"/>
       <use xlink:href="#DejaVuSans-30" transform="translate(127.246094 0)"/>
      </g>
     </g>
    </g>
    <g id="ytick_9">
     <g id="line2d_33">
      <path d="M 46.965625 37.905218 
L 597.205625 37.905218 
" clip-path="url(#p1f5d05da50)" style="fill: none; stroke: #b0b0b0; stroke-opacity: 0.2; stroke-width: 0.8; stroke-linecap: square"/>
     </g>
     <g id="line2d_34">
      <g>
       <use xlink:href="#mdaea95a712" x="46.965625" y="37.905218" style="stroke: #000000; stroke-width: 0.8"/>
      </g>
     </g>
     <g id="text_18">
      <!-- 160 -->
      <g transform="translate(20.878125 41.704436) scale(0.1 -0.1)">
       <use xlink:href="#DejaVuSans-31"/>
       <use xlink:href="#DejaVuSans-36" transform="translate(63.623047 0)"/>
       <use xlink:href="#DejaVuSans-30" transform="translate(127.246094 0)"/>
      </g>
     </g>
    </g>
    <g id="text_19">
     <!-- Frequency -->
     <g transform="translate(14.798438 193.727813) rotate(-90) scale(0.1 -0.1)">
      <defs>
       <path id="DejaVuSans-46" d="M 628 4666 
L 3309 4666 
L 3309 4134 
L 1259 4134 
L 1259 2759 
L 3109 2759 
L 3109 2228 
L 1259 2228 
L 1259 0 
L 628 0 
L 628 4666 
z
" transform="scale(0.015625)"/>
       <path id="DejaVuSans-71" d="M 947 1747 
Q 947 1113 1208 752 
Q 1469 391 1925 391 
Q 2381 391 2643 752 
Q 2906 1113 2906 1747 
Q 2906 2381 2643 2742 
Q 2381 3103 1925 3103 
Q 1469 3103 1208 2742 
Q 947 2381 947 1747 
z
M 2906 525 
Q 2725 213 2448 61 
Q 2172 -91 1784 -91 
Q 1150 -91 751 415 
Q 353 922 353 1747 
Q 353 2572 751 3078 
Q 1150 3584 1784 3584 
Q 2172 3584 2448 3432 
Q 2725 3281 2906 2969 
L 2906 3500 
L 3481 3500 
L 3481 -1331 
L 2906 -1331 
L 2906 525 
z
" transform="scale(0.015625)"/>
       <path id="DejaVuSans-63" d="M 3122 3366 
L 3122 2828 
Q 2878 2963 2633 3030 
Q 2388 3097 2138 3097 
Q 1578 3097 1268 2742 
Q 959 2388 959 1747 
Q 959 1106 1268 751 
Q 1578 397 2138 397 
Q 2388 397 2633 464 
Q 2878 531 3122 666 
L 3122 134 
Q 2881 22 2623 -34 
Q 2366 -91 2075 -91 
Q 1284 -91 818 406 
Q 353 903 353 1747 
Q 353 2603 823 3093 
Q 1294 3584 2113 3584 
Q 2378 3584 2631 3529 
Q 2884 3475 3122 3366 
z
" transform="scale(0.015625)"/>
       <path id="DejaVuSans-79" d="M 2059 -325 
Q 1816 -950 1584 -1140 
Q 1353 -1331 966 -1331 
L 506 -1331 
L 506 -850 
L 844 -850 
Q 1081 -850 1212 -737 
Q 1344 -625 1503 -206 
L 1606 56 
L 191 3500 
L 800 3500 
L 1894 763 
L 2988 3500 
L 3597 3500 
L 2059 -325 
z
" transform="scale(0.015625)"/>
      </defs>
      <use xlink:href="#DejaVuSans-46"/>
      <use xlink:href="#DejaVuSans-72" transform="translate(50.269531 0)"/>
      <use xlink:href="#DejaVuSans-65" transform="translate(89.132812 0)"/>
      <use xlink:href="#DejaVuSans-71" transform="translate(150.65625 0)"/>
      <use xlink:href="#DejaVuSans-75" transform="translate(214.132812 0)"/>
      <use xlink:href="#DejaVuSans-65" transform="translate(277.511719 0)"/>
      <use xlink:href="#DejaVuSans-6e" transform="translate(339.035156 0)"/>
      <use xlink:href="#DejaVuSans-63" transform="translate(402.414062 0)"/>
      <use xlink:href="#DejaVuSans-79" transform="translate(457.394531 0)"/>
     </g>
    </g>
   </g>
   <g id="line2d_35">
    <path d="M 271.936309 313.478125 
L 271.936309 22.318125 
" clip-path="url(#p1f5d05da50)" style="fill: none; stroke: #1f77b4; stroke-linecap: square"/>
   </g>
   <g id="line2d_36">
    <path d="M 358.179152 313.478125 
L 358.179152 22.318125 
" clip-path="url(#p1f5d05da50)" style="fill: none; stroke-dasharray: 3.7,1.6; stroke-dashoffset: 0; stroke: #1f77b4"/>
   </g>
   <g id="patch_48">
    <path d="M 46.965625 313.478125 
L 46.965625 22.318125 
" style="fill: none; stroke: #000000; stroke-width: 0.8; stroke-linejoin: miter; stroke-linecap: square"/>
   </g>
   <g id="patch_49">
    <path d="M 597.205625 313.478125 
L 597.205625 22.318125 
" style="fill: none; stroke: #000000; stroke-width: 0.8; stroke-linejoin: miter; stroke-linecap: square"/>
   </g>
   <g id="patch_50">
    <path d="M 46.965625 313.478125 
L 597.205625 313.478125 
" style="fill: none; stroke: #000000; stroke-width: 0.8; stroke-linejoin: miter; stroke-linecap: square"/>
   </g>
   <g id="patch_51">
    <path d="M 46.965625 22.318125 
L 597.205625 22.318125 
" style="fill: none; stroke: #000000; stroke-width: 0.8; stroke-linejoin: miter; stroke-linecap: square"/>
   </g>
   <g id="text_20">
    <!-- 5-day moving-block bootstrap of holdout return -->
    <g transform="translate(179.265937 16.318125) scale(0.12 -0.12)">
     <defs>
      <path id="DejaVuSans-35" d="M 691 4666 
L 3169 4666 
L 3169 4134 
L 1269 4134 
L 1269 2991 
Q 1406 3038 1543 3061 
Q 1681 3084 1819 3084 
Q 2600 3084 3056 2656 
Q 3513 2228 3513 1497 
Q 3513 744 3044 326 
Q 2575 -91 1722 -91 
Q 1428 -91 1123 -41 
Q 819 9 494 109 
L 494 744 
Q 775 591 1075 516 
Q 1375 441 1709 441 
Q 2250 441 2565 725 
Q 2881 1009 2881 1497 
Q 2881 1984 2565 2268 
Q 2250 2553 1709 2553 
Q 1456 2553 1204 2497 
Q 953 2441 691 2322 
L 691 4666 
z
" transform="scale(0.015625)"/>
      <path id="DejaVuSans-2d" d="M 313 2009 
L 1997 2009 
L 1997 1497 
L 313 1497 
L 313 2009 
z
" transform="scale(0.015625)"/>
      <path id="DejaVuSans-6d" d="M 3328 2828 
Q 3544 3216 3844 3400 
Q 4144 3584 4550 3584 
Q 5097 3584 5394 3201 
Q 5691 2819 5691 2113 
L 5691 0 
L 5113 0 
L 5113 2094 
Q 5113 2597 4934 2840 
Q 4756 3084 4391 3084 
Q 3944 3084 3684 2787 
Q 3425 2491 3425 1978 
L 3425 0 
L 2847 0 
L 2847 2094 
Q 2847 2600 2669 2842 
Q 2491 3084 2119 3084 
Q 1678 3084 1418 2786 
Q 1159 2488 1159 1978 
L 1159 0 
L 581 0 
L 581 3500 
L 1159 3500 
L 1159 2956 
Q 1356 3278 1631 3431 
Q 1906 3584 2284 3584 
Q 2666 3584 2933 3390 
Q 3200 3197 3328 2828 
z
" transform="scale(0.015625)"/>
      <path id="DejaVuSans-76" d="M 191 3500 
L 800 3500 
L 1894 563 
L 2988 3500 
L 3597 3500 
L 2284 0 
L 1503 0 
L 191 3500 
z
" transform="scale(0.015625)"/>
      <path id="DejaVuSans-69" d="M 603 3500 
L 1178 3500 
L 1178 0 
L 603 0 
L 603 3500 
z
M 603 4863 
L 1178 4863 
L 1178 4134 
L 603 4134 
L 603 4863 
z
" transform="scale(0.015625)"/>
      <path id="DejaVuSans-67" d="M 2906 1791 
Q 2906 2416 2648 2759 
Q 2391 3103 1925 3103 
Q 1463 3103 1205 2759 
Q 947 2416 947 1791 
Q 947 1169 1205 825 
Q 1463 481 1925 481 
Q 2391 481 2648 825 
Q 2906 1169 2906 1791 
z
M 3481 434 
Q 3481 -459 3084 -895 
Q 2688 -1331 1869 -1331 
Q 1566 -1331 1297 -1286 
Q 1028 -1241 775 -1147 
L 775 -588 
Q 1028 -725 1275 -790 
Q 1522 -856 1778 -856 
Q 2344 -856 2625 -561 
Q 2906 -266 2906 331 
L 2906 616 
Q 2728 306 2450 153 
Q 2172 0 1784 0 
Q 1141 0 747 490 
Q 353 981 353 1791 
Q 353 2603 747 3093 
Q 1141 3584 1784 3584 
Q 2172 3584 2450 3431 
Q 2728 3278 2906 2969 
L 2906 3500 
L 3481 3500 
L 3481 434 
z
" transform="scale(0.015625)"/>
      <path id="DejaVuSans-62" d="M 3116 1747 
Q 3116 2381 2855 2742 
Q 2594 3103 2138 3103 
Q 1681 3103 1420 2742 
Q 1159 2381 1159 1747 
Q 1159 1113 1420 752 
Q 1681 391 2138 391 
Q 2594 391 2855 752 
Q 3116 1113 3116 1747 
z
M 1159 2969 
Q 1341 3281 1617 3432 
Q 1894 3584 2278 3584 
Q 2916 3584 3314 3078 
Q 3713 2572 3713 1747 
Q 3713 922 3314 415 
Q 2916 -91 2278 -91 
Q 1894 -91 1617 61 
Q 1341 213 1159 525 
L 1159 0 
L 581 0 
L 581 4863 
L 1159 4863 
L 1159 2969 
z
" transform="scale(0.015625)"/>
      <path id="DejaVuSans-6b" d="M 581 4863 
L 1159 4863 
L 1159 1991 
L 2875 3500 
L 3609 3500 
L 1753 1863 
L 3688 0 
L 2938 0 
L 1159 1709 
L 1159 0 
L 581 0 
L 581 4863 
z
" transform="scale(0.015625)"/>
      <path id="DejaVuSans-66" d="M 2375 4863 
L 2375 4384 
L 1825 4384 
Q 1516 4384 1395 4259 
Q 1275 4134 1275 3809 
L 1275 3500 
L 2222 3500 
L 2222 3053 
L 1275 3053 
L 1275 0 
L 697 0 
L 697 3053 
L 147 3053 
L 147 3500 
L 697 3500 
L 697 3744 
Q 697 4328 969 4595 
Q 1241 4863 1831 4863 
L 2375 4863 
z
" transform="scale(0.015625)"/>
      <path id="DejaVuSans-68" d="M 3513 2113 
L 3513 0 
L 2938 0 
L 2938 2094 
Q 2938 2591 2744 2837 
Q 2550 3084 2163 3084 
Q 1697 3084 1428 2787 
Q 1159 2491 1159 1978 
L 1159 0 
L 581 0 
L 581 4863 
L 1159 4863 
L 1159 2956 
Q 1366 3272 1645 3428 
Q 1925 3584 2291 3584 
Q 2894 3584 3203 3211 
Q 3513 2838 3513 2113 
z
" transform="scale(0.015625)"/>
     </defs>
     <use xlink:href="#DejaVuSans-35"/>
     <use xlink:href="#DejaVuSans-2d" transform="translate(63.623047 0)"/>
     <use xlink:href="#DejaVuSans-64" transform="translate(99.707031 0)"/>
     <use xlink:href="#DejaVuSans-61" transform="translate(163.183594 0)"/>
     <use xlink:href="#DejaVuSans-79" transform="translate(224.462891 0)"/>
     <use xlink:href="#DejaVuSans-20" transform="translate(283.642578 0)"/>
     <use xlink:href="#DejaVuSans-6d" transform="translate(315.429688 0)"/>
     <use xlink:href="#DejaVuSans-6f" transform="translate(412.841797 0)"/>
     <use xlink:href="#DejaVuSans-76" transform="translate(474.023438 0)"/>
     <use xlink:href="#DejaVuSans-69" transform="translate(533.203125 0)"/>
     <use xlink:href="#DejaVuSans-6e" transform="translate(560.986328 0)"/>
     <use xlink:href="#DejaVuSans-67" transform="translate(624.365234 0)"/>
     <use xlink:href="#DejaVuSans-2d" transform="translate(687.841797 0)"/>
     <use xlink:href="#DejaVuSans-62" transform="translate(723.925781 0)"/>
     <use xlink:href="#DejaVuSans-6c" transform="translate(787.402344 0)"/>
     <use xlink:href="#DejaVuSans-6f" transform="translate(815.185547 0)"/>
     <use xlink:href="#DejaVuSans-63" transform="translate(876.367188 0)"/>
     <use xlink:href="#DejaVuSans-6b" transform="translate(931.347656 0)"/>
     <use xlink:href="#DejaVuSans-20" transform="translate(989.257812 0)"/>
     <use xlink:href="#DejaVuSans-62" transform="translate(1021.044922 0)"/>
     <use xlink:href="#DejaVuSans-6f" transform="translate(1084.521484 0)"/>
     <use xlink:href="#DejaVuSans-6f" transform="translate(1145.703125 0)"/>
     <use xlink:href="#DejaVuSans-74" transform="translate(1206.884766 0)"/>
     <use xlink:href="#DejaVuSans-73" transform="translate(1246.09375 0)"/>
     <use xlink:href="#DejaVuSans-74" transform="translate(1298.193359 0)"/>
     <use xlink:href="#DejaVuSans-72" transform="translate(1337.402344 0)"/>
     <use xlink:href="#DejaVuSans-61" transform="translate(1378.515625 0)"/>
     <use xlink:href="#DejaVuSans-70" transform="translate(1439.794922 0)"/>
     <use xlink:href="#DejaVuSans-20" transform="translate(1503.271484 0)"/>
     <use xlink:href="#DejaVuSans-6f" transform="translate(1535.058594 0)"/>
     <use xlink:href="#DejaVuSans-66" transform="translate(1596.240234 0)"/>
     <use xlink:href="#DejaVuSans-20" transform="translate(1631.445312 0)"/>
     <use xlink:href="#DejaVuSans-68" transform="translate(1663.232422 0)"/>
     <use xlink:href="#DejaVuSans-6f" transform="translate(1726.611328 0)"/>
     <use xlink:href="#DejaVuSans-6c" transform="translate(1787.792969 0)"/>
     <use xlink:href="#DejaVuSans-64" transform="translate(1815.576172 0)"/>
     <use xlink:href="#DejaVuSans-6f" transform="translate(1879.052734 0)"/>
     <use xlink:href="#DejaVuSans-75" transform="translate(1940.234375 0)"/>
     <use xlink:href="#DejaVuSans-74" transform="translate(2003.613281 0)"/>
     <use xlink:href="#DejaVuSans-20" transform="translate(2042.822266 0)"/>
     <use xlink:href="#DejaVuSans-72" transform="translate(2074.609375 0)"/>
     <use xlink:href="#DejaVuSans-65" transform="translate(2113.472656 0)"/>
     <use xlink:href="#DejaVuSans-74" transform="translate(2174.996094 0)"/>
     <use xlink:href="#DejaVuSans-75" transform="translate(2214.205078 0)"/>
     <use xlink:href="#DejaVuSans-72" transform="translate(2277.583984 0)"/>
     <use xlink:href="#DejaVuSans-6e" transform="translate(2316.947266 0)"/>
    </g>
   </g>
   <g id="legend_1">
    <g id="patch_52">
     <path d="M 435.205625 59.674375 
L 590.205625 59.674375 
Q 592.205625 59.674375 592.205625 57.674375 
L 592.205625 29.318125 
Q 592.205625 27.318125 590.205625 27.318125 
L 435.205625 27.318125 
Q 433.205625 27.318125 433.205625 29.318125 
L 433.205625 57.674375 
Q 433.205625 59.674375 435.205625 59.674375 
z
" style="fill: #ffffff; opacity: 0.8; stroke: #cccccc; stroke-linejoin: miter"/>
    </g>
    <g id="line2d_37">
     <path d="M 437.205625 35.416562 
L 447.205625 35.416562 
L 457.205625 35.416562 
" style="fill: none; stroke: #1f77b4; stroke-linecap: square"/>
    </g>
    <g id="text_21">
     <!-- Observed holdout return -->
     <g transform="translate(465.205625 38.916562) scale(0.1 -0.1)">
      <defs>
       <path id="DejaVuSans-4f" d="M 2522 4238 
Q 1834 4238 1429 3725 
Q 1025 3213 1025 2328 
Q 1025 1447 1429 934 
Q 1834 422 2522 422 
Q 3209 422 3611 934 
Q 4013 1447 4013 2328 
Q 4013 3213 3611 3725 
Q 3209 4238 2522 4238 
z
M 2522 4750 
Q 3503 4750 4090 4092 
Q 4678 3434 4678 2328 
Q 4678 1225 4090 567 
Q 3503 -91 2522 -91 
Q 1538 -91 948 565 
Q 359 1222 359 2328 
Q 359 3434 948 4092 
Q 1538 4750 2522 4750 
z
" transform="scale(0.015625)"/>
      </defs>
      <use xlink:href="#DejaVuSans-4f"/>
      <use xlink:href="#DejaVuSans-62" transform="translate(78.710938 0)"/>
      <use xlink:href="#DejaVuSans-73" transform="translate(142.1875 0)"/>
      <use xlink:href="#DejaVuSans-65" transform="translate(194.287109 0)"/>
      <use xlink:href="#DejaVuSans-72" transform="translate(255.810547 0)"/>
      <use xlink:href="#DejaVuSans-76" transform="translate(296.923828 0)"/>
      <use xlink:href="#DejaVuSans-65" transform="translate(356.103516 0)"/>
      <use xlink:href="#DejaVuSans-64" transform="translate(417.626953 0)"/>
      <use xlink:href="#DejaVuSans-20" transform="translate(481.103516 0)"/>
      <use xlink:href="#DejaVuSans-68" transform="translate(512.890625 0)"/>
      <use xlink:href="#DejaVuSans-6f" transform="translate(576.269531 0)"/>
      <use xlink:href="#DejaVuSans-6c" transform="translate(637.451172 0)"/>
      <use xlink:href="#DejaVuSans-64" transform="translate(665.234375 0)"/>
      <use xlink:href="#DejaVuSans-6f" transform="translate(728.710938 0)"/>
      <use xlink:href="#DejaVuSans-75" transform="translate(789.892578 0)"/>
      <use xlink:href="#DejaVuSans-74" transform="translate(853.271484 0)"/>
      <use xlink:href="#DejaVuSans-20" transform="translate(892.480469 0)"/>
      <use xlink:href="#DejaVuSans-72" transform="translate(924.267578 0)"/>
      <use xlink:href="#DejaVuSans-65" transform="translate(963.130859 0)"/>
      <use xlink:href="#DejaVuSans-74" transform="translate(1024.654297 0)"/>
      <use xlink:href="#DejaVuSans-75" transform="translate(1063.863281 0)"/>
      <use xlink:href="#DejaVuSans-72" transform="translate(1127.242188 0)"/>
      <use xlink:href="#DejaVuSans-6e" transform="translate(1166.605469 0)"/>
     </g>
    </g>
    <g id="line2d_38">
     <path d="M 437.205625 50.094688 
L 447.205625 50.094688 
L 457.205625 50.094688 
" style="fill: none; stroke-dasharray: 3.7,1.6; stroke-dashoffset: 0; stroke: #1f77b4"/>
    </g>
    <g id="text_22">
     <!-- Zero return -->
     <g transform="translate(465.205625 53.594688) scale(0.1 -0.1)">
      <defs>
       <path id="DejaVuSans-5a" d="M 359 4666 
L 4025 4666 
L 4025 4184 
L 1075 531 
L 4097 531 
L 4097 0 
L 288 0 
L 288 481 
L 3238 4134 
L 359 4134 
L 359 4666 
z
" transform="scale(0.015625)"/>
      </defs>
      <use xlink:href="#DejaVuSans-5a"/>
      <use xlink:href="#DejaVuSans-65" transform="translate(68.505859 0)"/>
      <use xlink:href="#DejaVuSans-72" transform="translate(130.029297 0)"/>
      <use xlink:href="#DejaVuSans-6f" transform="translate(168.892578 0)"/>
      <use xlink:href="#DejaVuSans-20" transform="translate(230.074219 0)"/>
      <use xlink:href="#DejaVuSans-72" transform="translate(261.861328 0)"/>
      <use xlink:href="#DejaVuSans-65" transform="translate(300.724609 0)"/>
      <use xlink:href="#DejaVuSans-74" transform="translate(362.248047 0)"/>
      <use xlink:href="#DejaVuSans-75" transform="translate(401.457031 0)"/>
      <use xlink:href="#DejaVuSans-72" transform="translate(464.835938 0)"/>
      <use xlink:href="#DejaVuSans-6e" transform="translate(504.199219 0)"/>
     </g>
    </g>
   </g>
  </g>
 </g>
 <defs>
  <clipPath id="p1f5d05da50">
   <rect x="46.965625" y="22.318125" width="550.24" height="291.16"/>
  </clipPath>
 </defs>
</svg>
