<?xml version="1.0" encoding="utf-8" standalone="no"?>
<!DOCTYPE svg PUBLIC "-//W3C//DTD SVG 1.1//EN"
  "http://www.w3.org/Graphics/SVG/1.1/DTD/svg11.dtd">
<svg xmlns:xlink="http://www.w3.org/1999/xlink" width="784.37125pt" height="423.43625pt" viewBox="0 0 784.37125 423.43625" xmlns="http://www.w3.org/2000/svg" version="1.1">
 <metadata>
  <rdf:RDF xmlns:dc="http://purl.org/dc/elements/1.1/" xmlns:cc="http://creativecommons.org/ns#" xmlns:rdf="http://www.w3.org/1999/02/22-rdf-syntax-ns#">
   <cc:Work>
    <dc:type rdf:resource="http://purl.org/dc/dcmitype/StillImage"/>
    <dc:date>2026-06-17T08:14:24.179193</dc:date>
    <dc:format>image/svg+xml</dc:format>
    <dc:creator>
     <cc:Agent>
      <dc:title>Matplotlib v3.10.0, https://matplotlib.org/</dc:title>
     </cc:Agent>
    </dc:creator>
   </cc:Work>
  </rdf:RDF>
 </metadata>
 <defs>
  <style type="text/css">*{stroke-linejoin: round; stroke-linecap: butt}</style>
 </defs>
 <g id="figure_1">
  <g id="patch_1">
   <path d="M 0 423.43625 
L 784.37125 423.43625 
L 784.37125 0 
L 0 0 
z
" style="fill: #ffffff"/>
  </g>
  <g id="axes_1">
   <g id="patch_2">
    <path d="M 43.78125 399.558125 
L 777.17125 399.558125 
L 777.17125 22.318125 
L 43.78125 22.318125 
z
" style="fill: #ffffff"/>
   </g>
   <g id="matplotlib.axis_1">
    <g id="xtick_1">
     <g id="line2d_1">
      <defs>
       <path id="m1a514cc930" d="M 0 0 
L 0 3.5 
" style="stroke: #000000; stroke-width: 0.8"/>
      </defs>
      <g>
       <use xlink:href="#m1a514cc930" x="76.507727" y="399.558125" style="stroke: #000000; stroke-width: 0.8"/>
      </g>
     </g>
     <g id="text_1">
      <!-- 2022-01 -->
      <g transform="translate(55.616321 414.156563) scale(0.1 -0.1)">
       <defs>
        <path id="DejaVuSans-32" d="M 1228 531 
L 3431 531 
L 3431 0 
L 469 0 
L 469 531 
Q 828 903 1448 1529 
Q 2069 2156 2228 2338 
Q 2531 2678 2651 2914 
Q 2772 3150 2772 3378 
Q 2772 3750 2511 3984 
Q 2250 4219 1831 4219 
Q 1534 4219 1204 4116 
Q 875 4013 500 3803 
L 500 4441 
Q 881 4594 1212 4672 
Q 1544 4750 1819 4750 
Q 2544 4750 2975 4387 
Q 3406 4025 3406 3419 
Q 3406 3131 3298 2873 
Q 3191 2616 2906 2266 
Q 2828 2175 2409 1742 
Q 1991 1309 1228 531 
z
" transform="scale(0.015625)"/>
        <path id="DejaVuSans-30" d="M 2034 4250 
Q 1547 4250 1301 3770 
Q 1056 3291 1056 2328 
Q 1056 1369 1301 889 
Q 1547 409 2034 409 
Q 2525 409 2770 889 
Q 3016 1369 3016 2328 
Q 3016 3291 2770 3770 
Q 2525 4250 2034 4250 
z
M 2034 4750 
Q 2819 4750 3233 4129 
Q 3647 3509 3647 2328 
Q 3647 1150 3233 529 
Q 2819 -91 2034 -91 
Q 1250 -91 836 529 
Q 422 1150 422 2328 
Q 422 3509 836 4129 
Q 1250 4750 2034 4750 
z
" transform="scale(0.015625)"/>
        <path id="DejaVuSans-2d" d="M 313 2009 
L 1997 2009 
L 1997 1497 
L 313 1497 
L 313 2009 
z
" transform="scale(0.015625)"/>
        <path id="DejaVuSans-31" d="M 794 531 
L 1825 531 
L 1825 4091 
L 703 3866 
L 703 4441 
L 1819 4666 
L 2450 4666 
L 2450 531 
L 3481 531 
L 3481 0 
L 794 0 
L 794 531 
z
" transform="scale(0.015625)"/>
       </defs>
       <use xlink:href="#DejaVuSans-32"/>
       <use xlink:href="#DejaVuSans-30" transform="translate(63.623047 0)"/>
       <use xlink:href="#DejaVuSans-32" transform="translate(127.246094 0)"/>
       <use xlink:href="#DejaVuSans-32" transform="translate(190.869141 0)"/>
       <use xlink:href="#DejaVuSans-2d" transform="translate(254.492188 0)"/>
       <use xlink:href="#DejaVuSans-30" transform="translate(290.576172 0)"/>
       <use xlink:href="#DejaVuSans-31" transform="translate(354.199219 0)"/>
      </g>
     </g>
    </g>
    <g id="xtick_2">
     <g id="line2d_2">
      <g>
       <use xlink:href="#m1a514cc930" x="149.639521" y="399.558125" style="stroke: #000000; stroke-width: 0.8"/>
      </g>
     </g>
     <g id="text_2">
      <!-- 2022-05 -->
      <g transform="translate(128.748114 414.156563) scale(0.1 -0.1)">
       <defs>
        <path id="DejaVuSans-35" d="M 691 4666 
L 3169 4666 
L 3169 4134 
L 1269 4134 
L 1269 2991 
Q 1406 3038 1543 3061 
Q 1681 3084 1819 3084 
Q 2600 3084 3056 2656 
Q 3513 2228 3513 1497 
Q 3513 744 3044 326 
Q 2575 -91 1722 -91 
Q 1428 -91 1123 -41 
Q 819 9 494 109 
L 494 744 
Q 775 591 1075 516 
Q 1375 441 1709 441 
Q 2250 441 2565 725 
Q 2881 1009 2881 1497 
Q 2881 1984 2565 2268 
Q 2250 2553 1709 2553 
Q 1456 2553 1204 2497 
Q 953 2441 691 2322 
L 691 4666 
z
" transform="scale(0.015625)"/>
       </defs>
       <use xlink:href="#DejaVuSans-32"/>
       <use xlink:href="#DejaVuSans-30" transform="translate(63.623047 0)"/>
       <use xlink:href="#DejaVuSans-32" transform="translate(127.246094 0)"/>
       <use xlink:href="#DejaVuSans-32" transform="translate(190.869141 0)"/>
       <use xlink:href="#DejaVuSans-2d" transform="translate(254.492188 0)"/>
       <use xlink:href="#DejaVuSans-30" transform="translate(290.576172 0)"/>
       <use xlink:href="#DejaVuSans-35" transform="translate(354.199219 0)"/>
      </g>
     </g>
    </g>
    <g id="xtick_3">
     <g id="line2d_3">
      <g>
       <use xlink:href="#m1a514cc930" x="224.599609" y="399.558125" style="stroke: #000000; stroke-width: 0.8"/>
      </g>
     </g>
     <g id="text_3">
      <!-- 2022-09 -->
      <g transform="translate(203.708203 414.156563) scale(0.1 -0.1)">
       <defs>
        <path id="DejaVuSans-39" d="M 703 97 
L 703 672 
Q 941 559 1184 500 
Q 1428 441 1663 441 
Q 2288 441 2617 861 
Q 2947 1281 2994 2138 
Q 2813 1869 2534 1725 
Q 2256 1581 1919 1581 
Q 1219 1581 811 2004 
Q 403 2428 403 3163 
Q 403 3881 828 4315 
Q 1253 4750 1959 4750 
Q 2769 4750 3195 4129 
Q 3622 3509 3622 2328 
Q 3622 1225 3098 567 
Q 2575 -91 1691 -91 
Q 1453 -91 1209 -44 
Q 966 3 703 97 
z
M 1959 2075 
Q 2384 2075 2632 2365 
Q 2881 2656 2881 3163 
Q 2881 3666 2632 3958 
Q 2384 4250 1959 4250 
Q 1534 4250 1286 3958 
Q 1038 3666 1038 3163 
Q 1038 2656 1286 2365 
Q 1534 2075 1959 2075 
z
" transform="scale(0.015625)"/>
       </defs>
       <use xlink:href="#DejaVuSans-32"/>
       <use xlink:href="#DejaVuSans-30" transform="translate(63.623047 0)"/>
       <use xlink:href="#DejaVuSans-32" transform="translate(127.246094 0)"/>
       <use xlink:href="#DejaVuSans-32" transform="translate(190.869141 0)"/>
       <use xlink:href="#DejaVuSans-2d" transform="translate(254.492188 0)"/>
       <use xlink:href="#DejaVuSans-30" transform="translate(290.576172 0)"/>
       <use xlink:href="#DejaVuSans-39" transform="translate(354.199219 0)"/>
      </g>
     </g>
    </g>
    <g id="xtick_4">
     <g id="line2d_4">
      <g>
       <use xlink:href="#m1a514cc930" x="298.950265" y="399.558125" style="stroke: #000000; stroke-width: 0.8"/>
      </g>
     </g>
     <g id="text_4">
      <!-- 2023-01 -->
      <g transform="translate(278.058859 414.156563) scale(0.1 -0.1)">
       <defs>
        <path id="DejaVuSans-33" d="M 2597 2516 
Q 3050 2419 3304 2112 
Q 3559 1806 3559 1356 
Q 3559 666 3084 287 
Q 2609 -91 1734 -91 
Q 1441 -91 1130 -33 
Q 819 25 488 141 
L 488 750 
Q 750 597 1062 519 
Q 1375 441 1716 441 
Q 2309 441 2620 675 
Q 2931 909 2931 1356 
Q 2931 1769 2642 2001 
Q 2353 2234 1838 2234 
L 1294 2234 
L 1294 2753 
L 1863 2753 
Q 2328 2753 2575 2939 
Q 2822 3125 2822 3475 
Q 2822 3834 2567 4026 
Q 2313 4219 1838 4219 
Q 1578 4219 1281 4162 
Q 984 4106 628 3988 
L 628 4550 
Q 988 4650 1302 4700 
Q 1616 4750 1894 4750 
Q 2613 4750 3031 4423 
Q 3450 4097 3450 3541 
Q 3450 3153 3228 2886 
Q 3006 2619 2597 2516 
z
" transform="scale(0.015625)"/>
       </defs>
       <use xlink:href="#DejaVuSans-32"/>
       <use xlink:href="#DejaVuSans-30" transform="translate(63.623047 0)"/>
       <use xlink:href="#DejaVuSans-32" transform="translate(127.246094 0)"/>
       <use xlink:href="#DejaVuSans-33" transform="translate(190.869141 0)"/>
       <use xlink:href="#DejaVuSans-2d" transform="translate(254.492188 0)"/>
       <use xlink:href="#DejaVuSans-30" transform="translate(290.576172 0)"/>
       <use xlink:href="#DejaVuSans-31" transform="translate(354.199219 0)"/>
      </g>
     </g>
    </g>
    <g id="xtick_5">
     <g id="line2d_5">
      <g>
       <use xlink:href="#m1a514cc930" x="372.082059" y="399.558125" style="stroke: #000000; stroke-width: 0.8"/>
      </g>
     </g>
     <g id="text_5">
      <!-- 2023-05 -->
      <g transform="translate(351.190652 414.156563) scale(0.1 -0.1)">
       <use xlink:href="#DejaVuSans-32"/>
       <use xlink:href="#DejaVuSans-30" transform="translate(63.623047 0)"/>
       <use xlink:href="#DejaVuSans-32" transform="translate(127.246094 0)"/>
       <use xlink:href="#DejaVuSans-33" transform="translate(190.869141 0)"/>
       <use xlink:href="#DejaVuSans-2d" transform="translate(254.492188 0)"/>
       <use xlink:href="#DejaVuSans-30" transform="translate(290.576172 0)"/>
       <use xlink:href="#DejaVuSans-35" transform="translate(354.199219 0)"/>
      </g>
     </g>
    </g>
    <g id="xtick_6">
     <g id="line2d_6">
      <g>
       <use xlink:href="#m1a514cc930" x="447.042147" y="399.558125" style="stroke: #000000; stroke-width: 0.8"/>
      </g>
     </g>
     <g id="text_6">
      <!-- 2023-09 -->
      <g transform="translate(426.15074 414.156563) scale(0.1 -0.1)">
       <use xlink:href="#DejaVuSans-32"/>
       <use xlink:href="#DejaVuSans-30" transform="translate(63.623047 0)"/>
       <use xlink:href="#DejaVuSans-32" transform="translate(127.246094 0)"/>
       <use xlink:href="#DejaVuSans-33" transform="translate(190.869141 0)"/>
       <use xlink:href="#DejaVuSans-2d" transform="translate(254.492188 0)"/>
       <use xlink:href="#DejaVuSans-30" transform="translate(290.576172 0)"/>
       <use xlink:href="#DejaVuSans-39" transform="translate(354.199219 0)"/>
      </g>
     </g>
    </g>
    <g id="xtick_7">
     <g id="line2d_7">
      <g>
       <use xlink:href="#m1a514cc930" x="521.392803" y="399.558125" style="stroke: #000000; stroke-width: 0.8"/>
      </g>
     </g>
     <g id="text_7">
      <!-- 2024-01 -->
      <g transform="translate(500.501397 414.156563) scale(0.1 -0.1)">
       <defs>
        <path id="DejaVuSans-34" d="M 2419 4116 
L 825 1625 
L 2419 1625 
L 2419 4116 
z
M 2253 4666 
L 3047 4666 
L 3047 1625 
L 3713 1625 
L 3713 1100 
L 3047 1100 
L 3047 0 
L 2419 0 
L 2419 1100 
L 313 1100 
L 313 1709 
L 2253 4666 
z
" transform="scale(0.015625)"/>
       </defs>
       <use xlink:href="#DejaVuSans-32"/>
       <use xlink:href="#DejaVuSans-30" transform="translate(63.623047 0)"/>
       <use xlink:href="#DejaVuSans-32" transform="translate(127.246094 0)"/>
       <use xlink:href="#DejaVuSans-34" transform="translate(190.869141 0)"/>
       <use xlink:href="#DejaVuSans-2d" transform="translate(254.492188 0)"/>
       <use xlink:href="#DejaVuSans-30" transform="translate(290.576172 0)"/>
       <use xlink:href="#DejaVuSans-31" transform="translate(354.199219 0)"/>
      </g>
     </g>
    </g>
    <g id="xtick_8">
     <g id="line2d_8">
      <g>
       <use xlink:href="#m1a514cc930" x="595.134028" y="399.558125" style="stroke: #000000; stroke-width: 0.8"/>
      </g>
     </g>
     <g id="text_8">
      <!-- 2024-05 -->
      <g transform="translate(574.242622 414.156563) scale(0.1 -0.1)">
       <use xlink:href="#DejaVuSans-32"/>
       <use xlink:href="#DejaVuSans-30" transform="translate(63.623047 0)"/>
       <use xlink:href="#DejaVuSans-32" transform="translate(127.246094 0)"/>
       <use xlink:href="#DejaVuSans-34" transform="translate(190.869141 0)"/>
       <use xlink:href="#DejaVuSans-2d" transform="translate(254.492188 0)"/>
       <use xlink:href="#DejaVuSans-30" transform="translate(290.576172 0)"/>
       <use xlink:href="#DejaVuSans-35" transform="translate(354.199219 0)"/>
      </g>
     </g>
    </g>
    <g id="xtick_9">
     <g id="line2d_9">
      <g>
       <use xlink:href="#m1a514cc930" x="670.094116" y="399.558125" style="stroke: #000000; stroke-width: 0.8"/>
      </g>
     </g>
     <g id="text_9">
      <!-- 2024-09 -->
      <g transform="translate(649.20271 414.156563) scale(0.1 -0.1)">
       <use xlink:href="#DejaVuSans-32"/>
       <use xlink:href="#DejaVuSans-30" transform="translate(63.623047 0)"/>
       <use xlink:href="#DejaVuSans-32" transform="translate(127.246094 0)"/>
       <use xlink:href="#DejaVuSans-34" transform="translate(190.869141 0)"/>
       <use xlink:href="#DejaVuSans-2d" transform="translate(254.492188 0)"/>
       <use xlink:href="#DejaVuSans-30" transform="translate(290.576172 0)"/>
       <use xlink:href="#DejaVuSans-39" transform="translate(354.199219 0)"/>
      </g>
     </g>
    </g>
    <g id="xtick_10">
     <g id="line2d_10">
      <g>
       <use xlink:href="#m1a514cc930" x="744.444773" y="399.558125" style="stroke: #000000; stroke-width: 0.8"/>
      </g>
     </g>
     <g id="text_10">
      <!-- 2025-01 -->
      <g transform="translate(723.553366 414.156563) scale(0.1 -0.1)">
       <use xlink:href="#DejaVuSans-32"/>
       <use xlink:href="#DejaVuSans-30" transform="translate(63.623047 0)"/>
       <use xlink:href="#DejaVuSans-32" transform="translate(127.246094 0)"/>
       <use xlink:href="#DejaVuSans-35" transform="translate(190.869141 0)"/>
       <use xlink:href="#DejaVuSans-2d" transform="translate(254.492188 0)"/>
       <use xlink:href="#DejaVuSans-30" transform="translate(290.576172 0)"/>
       <use xlink:href="#DejaVuSans-31" transform="translate(354.199219 0)"/>
      </g>
     </g>
    </g>
   </g>
   <g id="matplotlib.axis_2">
    <g id="ytick_1">
     <g id="line2d_11">
      <defs>
       <path id="m257c629464" d="M 0 0 
L -3.5 0 
" style="stroke: #000000; stroke-width: 0.8"/>
      </defs>
      <g>
       <use xlink:href="#m257c629464" x="43.78125" y="397.010842" style="stroke: #000000; stroke-width: 0.8"/>
      </g>
     </g>
     <g id="text_11">
      <!-- 0.8 -->
      <g transform="translate(20.878125 400.810061) scale(0.1 -0.1)">
       <defs>
        <path id="DejaVuSans-2e" d="M 684 794 
L 1344 794 
L 1344 0 
L 684 0 
L 684 794 
z
" transform="scale(0.015625)"/>
        <path id="DejaVuSans-38" d="M 2034 2216 
Q 1584 2216 1326 1975 
Q 1069 1734 1069 1313 
Q 1069 891 1326 650 
Q 1584 409 2034 409 
Q 2484 409 2743 651 
Q 3003 894 3003 1313 
Q 3003 1734 2745 1975 
Q 2488 2216 2034 2216 
z
M 1403 2484 
Q 997 2584 770 2862 
Q 544 3141 544 3541 
Q 544 4100 942 4425 
Q 1341 4750 2034 4750 
Q 2731 4750 3128 4425 
Q 3525 4100 3525 3541 
Q 3525 3141 3298 2862 
Q 3072 2584 2669 2484 
Q 3125 2378 3379 2068 
Q 3634 1759 3634 1313 
Q 3634 634 3220 271 
Q 2806 -91 2034 -91 
Q 1263 -91 848 271 
Q 434 634 434 1313 
Q 434 1759 690 2068 
Q 947 2378 1403 2484 
z
M 1172 3481 
Q 1172 3119 1398 2916 
Q 1625 2713 2034 2713 
Q 2441 2713 2670 2916 
Q 2900 3119 2900 3481 
Q 2900 3844 2670 4047 
Q 2441 4250 2034 4250 
Q 1625 4250 1398 4047 
Q 1172 3844 1172 3481 
z
" transform="scale(0.015625)"/>
       </defs>
       <use xlink:href="#DejaVuSans-30"/>
       <use xlink:href="#DejaVuSans-2e" transform="translate(63.623047 0)"/>
       <use xlink:href="#DejaVuSans-38" transform="translate(95.410156 0)"/>
      </g>
     </g>
    </g>
    <g id="ytick_2">
     <g id="line2d_12">
      <g>
       <use xlink:href="#m257c629464" x="43.78125" y="334.320562" style="stroke: #000000; stroke-width: 0.8"/>
      </g>
     </g>
     <g id="text_12">
      <!-- 0.9 -->
      <g transform="translate(20.878125 338.11978) scale(0.1 -0.1)">
       <use xlink:href="#DejaVuSans-30"/>
       <use xlink:href="#DejaVuSans-2e" transform="translate(63.623047 0)"/>
       <use xlink:href="#DejaVuSans-39" transform="translate(95.410156 0)"/>
      </g>
     </g>
    </g>
    <g id="ytick_3">
     <g id="line2d_13">
      <g>
       <use xlink:href="#m257c629464" x="43.78125" y="271.630281" style="stroke: #000000; stroke-width: 0.8"/>
      </g>
     </g>
     <g id="text_13">
      <!-- 1.0 -->
      <g transform="translate(20.878125 275.4295) scale(0.1 -0.1)">
       <use xlink:href="#DejaVuSans-31"/>
       <use xlink:href="#DejaVuSans-2e" transform="translate(63.623047 0)"/>
       <use xlink:href="#DejaVuSans-30" transform="translate(95.410156 0)"/>
      </g>
     </g>
    </g>
    <g id="ytick_4">
     <g id="line2d_14">
      <g>
       <use xlink:href="#m257c629464" x="43.78125" y="208.94" style="stroke: #000000; stroke-width: 0.8"/>
      </g>
     </g>
     <g id="text_14">
      <!-- 1.1 -->
      <g transform="translate(20.878125 212.739219) scale(0.1 -0.1)">
       <use xlink:href="#DejaVuSans-31"/>
       <use xlink:href="#DejaVuSans-2e" transform="translate(63.623047 0)"/>
       <use xlink:href="#DejaVuSans-31" transform="translate(95.410156 0)"/>
      </g>
     </g>
    </g>
    <g id="ytick_5">
     <g id="line2d_15">
      <g>
       <use xlink:href="#m257c629464" x="43.78125" y="146.249719" style="stroke: #000000; stroke-width: 0.8"/>
      </g>
     </g>
     <g id="text_15">
      <!-- 1.2 -->
      <g transform="translate(20.878125 150.048938) scale(0.1 -0.1)">
       <use xlink:href="#DejaVuSans-31"/>
       <use xlink:href="#DejaVuSans-2e" transform="translate(63.623047 0)"/>
       <use xlink:href="#DejaVuSans-32" transform="translate(95.410156 0)"/>
      </g>
     </g>
    </g>
    <g id="ytick_6">
     <g id="line2d_16">
      <g>
       <use xlink:href="#m257c629464" x="43.78125" y="83.559439" style="stroke: #000000; stroke-width: 0.8"/>
      </g>
     </g>
     <g id="text_16">
      <!-- 1.3 -->
      <g transform="translate(20.878125 87.358658) scale(0.1 -0.1)">
       <use xlink:href="#DejaVuSans-31"/>
       <use xlink:href="#DejaVuSans-2e" transform="translate(63.623047 0)"/>
       <use xlink:href="#DejaVuSans-33" transform="translate(95.410156 0)"/>
      </g>
     </g>
    </g>
    <g id="text_17">
     <!-- Development equity index -->
     <g transform="translate(14.798438 277.185781) rotate(-90) scale(0.1 -0.1)">
      <defs>
       <path id="DejaVuSans-44" d="M 1259 4147 
L 1259 519 
L 2022 519 
Q 2988 519 3436 956 
Q 3884 1394 3884 2338 
Q 3884 3275 3436 3711 
Q 2988 4147 2022 4147 
L 1259 4147 
z
M 628 4666 
L 1925 4666 
Q 3281 4666 3915 4102 
Q 4550 3538 4550 2338 
Q 4550 1131 3912 565 
Q 3275 0 1925 0 
L 628 0 
L 628 4666 
z
" transform="scale(0.015625)"/>
       <path id="DejaVuSans-65" d="M 3597 1894 
L 3597 1613 
L 953 1613 
Q 991 1019 1311 708 
Q 1631 397 2203 397 
Q 2534 397 2845 478 
Q 3156 559 3463 722 
L 3463 178 
Q 3153 47 2828 -22 
Q 2503 -91 2169 -91 
Q 1331 -91 842 396 
Q 353 884 353 1716 
Q 353 2575 817 3079 
Q 1281 3584 2069 3584 
Q 2775 3584 3186 3129 
Q 3597 2675 3597 1894 
z
M 3022 2063 
Q 3016 2534 2758 2815 
Q 2500 3097 2075 3097 
Q 1594 3097 1305 2825 
Q 1016 2553 972 2059 
L 3022 2063 
z
" transform="scale(0.015625)"/>
       <path id="DejaVuSans-76" d="M 191 3500 
L 800 3500 
L 1894 563 
L 2988 3500 
L 3597 3500 
L 2284 0 
L 1503 0 
L 191 3500 
z
" transform="scale(0.015625)"/>
       <path id="DejaVuSans-6c" d="M 603 4863 
L 1178 4863 
L 1178 0 
L 603 0 
L 603 4863 
z
" transform="scale(0.015625)"/>
       <path id="DejaVuSans-6f" d="M 1959 3097 
Q 1497 3097 1228 2736 
Q 959 2375 959 1747 
Q 959 1119 1226 758 
Q 1494 397 1959 397 
Q 2419 397 2687 759 
Q 2956 1122 2956 1747 
Q 2956 2369 2687 2733 
Q 2419 3097 1959 3097 
z
M 1959 3584 
Q 2709 3584 3137 3096 
Q 3566 2609 3566 1747 
Q 3566 888 3137 398 
Q 2709 -91 1959 -91 
Q 1206 -91 779 398 
Q 353 888 353 1747 
Q 353 2609 779 3096 
Q 1206 3584 1959 3584 
z
" transform="scale(0.015625)"/>
       <path id="DejaVuSans-70" d="M 1159 525 
L 1159 -1331 
L 581 -1331 
L 581 3500 
L 1159 3500 
L 1159 2969 
Q 1341 3281 1617 3432 
Q 1894 3584 2278 3584 
Q 2916 3584 3314 3078 
Q 3713 2572 3713 1747 
Q 3713 922 3314 415 
Q 2916 -91 2278 -91 
Q 1894 -91 1617 61 
Q 1341 213 1159 525 
z
M 3116 1747 
Q 3116 2381 2855 2742 
Q 2594 3103 2138 3103 
Q 1681 3103 1420 2742 
Q 1159 2381 1159 1747 
Q 1159 1113 1420 752 
Q 1681 391 2138 391 
Q 2594 391 2855 752 
Q 3116 1113 3116 1747 
z
" transform="scale(0.015625)"/>
       <path id="DejaVuSans-6d" d="M 3328 2828 
Q 3544 3216 3844 3400 
Q 4144 3584 4550 3584 
Q 5097 3584 5394 3201 
Q 5691 2819 5691 2113 
L 5691 0 
L 5113 0 
L 5113 2094 
Q 5113 2597 4934 2840 
Q 4756 3084 4391 3084 
Q 3944 3084 3684 2787 
Q 3425 2491 3425 1978 
L 3425 0 
L 2847 0 
L 2847 2094 
Q 2847 2600 2669 2842 
Q 2491 3084 2119 3084 
Q 1678 3084 1418 2786 
Q 1159 2488 1159 1978 
L 1159 0 
L 581 0 
L 581 3500 
L 1159 3500 
L 1159 2956 
Q 1356 3278 1631 3431 
Q 1906 3584 2284 3584 
Q 2666 3584 2933 3390 
Q 3200 3197 3328 2828 
z
" transform="scale(0.015625)"/>
       <path id="DejaVuSans-6e" d="M 3513 2113 
L 3513 0 
L 2938 0 
L 2938 2094 
Q 2938 2591 2744 2837 
Q 2550 3084 2163 3084 
Q 1697 3084 1428 2787 
Q 1159 2491 1159 1978 
L 1159 0 
L 581 0 
L 581 3500 
L 1159 3500 
L 1159 2956 
Q 1366 3272 1645 3428 
Q 1925 3584 2291 3584 
Q 2894 3584 3203 3211 
Q 3513 2838 3513 2113 
z
" transform="scale(0.015625)"/>
       <path id="DejaVuSans-74" d="M 1172 4494 
L 1172 3500 
L 2356 3500 
L 2356 3053 
L 1172 3053 
L 1172 1153 
Q 1172 725 1289 603 
Q 1406 481 1766 481 
L 2356 481 
L 2356 0 
L 1766 0 
Q 1100 0 847 248 
Q 594 497 594 1153 
L 594 3053 
L 172 3053 
L 172 3500 
L 594 3500 
L 594 4494 
L 1172 4494 
z
" transform="scale(0.015625)"/>
       <path id="DejaVuSans-20" transform="scale(0.015625)"/>
       <path id="DejaVuSans-71" d="M 947 1747 
Q 947 1113 1208 752 
Q 1469 391 1925 391 
Q 2381 391 2643 752 
Q 2906 1113 2906 1747 
Q 2906 2381 2643 2742 
Q 2381 3103 1925 3103 
Q 1469 3103 1208 2742 
Q 947 2381 947 1747 
z
M 2906 525 
Q 2725 213 2448 61 
Q 2172 -91 1784 -91 
Q 1150 -91 751 415 
Q 353 922 353 1747 
Q 353 2572 751 3078 
Q 1150 3584 1784 3584 
Q 2172 3584 2448 3432 
Q 2725 3281 2906 2969 
L 2906 3500 
L 3481 3500 
L 3481 -1331 
L 2906 -1331 
L 2906 525 
z
" transform="scale(0.015625)"/>
       <path id="DejaVuSans-75" d="M 544 1381 
L 544 3500 
L 1119 3500 
L 1119 1403 
Q 1119 906 1312 657 
Q 1506 409 1894 409 
Q 2359 409 2629 706 
Q 2900 1003 2900 1516 
L 2900 3500 
L 3475 3500 
L 3475 0 
L 2900 0 
L 2900 538 
Q 2691 219 2414 64 
Q 2138 -91 1772 -91 
Q 1169 -91 856 284 
Q 544 659 544 1381 
z
M 1991 3584 
L 1991 3584 
z
" transform="scale(0.015625)"/>
       <path id="DejaVuSans-69" d="M 603 3500 
L 1178 3500 
L 1178 0 
L 603 0 
L 603 3500 
z
M 603 4863 
L 1178 4863 
L 1178 4134 
L 603 4134 
L 603 4863 
z
" transform="scale(0.015625)"/>
       <path id="DejaVuSans-79" d="M 2059 -325 
Q 1816 -950 1584 -1140 
Q 1353 -1331 966 -1331 
L 506 -1331 
L 506 -850 
L 844 -850 
Q 1081 -850 1212 -737 
Q 1344 -625 1503 -206 
L 1606 56 
L 191 3500 
L 800 3500 
L 1894 763 
L 2988 3500 
L 3597 3500 
L 2059 -325 
z
" transform="scale(0.015625)"/>
       <path id="DejaVuSans-64" d="M 2906 2969 
L 2906 4863 
L 3481 4863 
L 3481 0 
L 2906 0 
L 2906 525 
Q 2725 213 2448 61 
Q 2172 -91 1784 -91 
Q 1150 -91 751 415 
Q 353 922 353 1747 
Q 353 2572 751 3078 
Q 1150 3584 1784 3584 
Q 2172 3584 2448 3432 
Q 2725 3281 2906 2969 
z
M 947 1747 
Q 947 1113 1208 752 
Q 1469 391 1925 391 
Q 2381 391 2643 752 
Q 2906 1113 2906 1747 
Q 2906 2381 2643 2742 
Q 2381 3103 1925 3103 
Q 1469 3103 1208 2742 
Q 947 2381 947 1747 
z
" transform="scale(0.015625)"/>
       <path id="DejaVuSans-78" d="M 3513 3500 
L 2247 1797 
L 3578 0 
L 2900 0 
L 1881 1375 
L 863 0 
L 184 0 
L 1544 1831 
L 300 3500 
L 978 3500 
L 1906 2253 
L 2834 3500 
L 3513 3500 
z
" transform="scale(0.015625)"/>
      </defs>
      <use xlink:href="#DejaVuSans-44"/>
      <use xlink:href="#DejaVuSans-65" transform="translate(77.001953 0)"/>
      <use xlink:href="#DejaVuSans-76" transform="translate(138.525391 0)"/>
      <use xlink:href="#DejaVuSans-65" transform="translate(197.705078 0)"/>
      <use xlink:href="#DejaVuSans-6c" transform="translate(259.228516 0)"/>
      <use xlink:href="#DejaVuSans-6f" transform="translate(287.011719 0)"/>
      <use xlink:href="#DejaVuSans-70" transform="translate(348.193359 0)"/>
      <use xlink:href="#DejaVuSans-6d" transform="translate(411.669922 0)"/>
      <use xlink:href="#DejaVuSans-65" transform="translate(509.082031 0)"/>
      <use xlink:href="#DejaVuSans-6e" transform="translate(570.605469 0)"/>
      <use xlink:href="#DejaVuSans-74" transform="translate(633.984375 0)"/>
      <use xlink:href="#DejaVuSans-20" transform="translate(673.193359 0)"/>
      <use xlink:href="#DejaVuSans-65" transform="translate(704.980469 0)"/>
      <use xlink:href="#DejaVuSans-71" transform="translate(766.503906 0)"/>
      <use xlink:href="#DejaVuSans-75" transform="translate(829.980469 0)"/>
      <use xlink:href="#DejaVuSans-69" transform="translate(893.359375 0)"/>
      <use xlink:href="#DejaVuSans-74" transform="translate(921.142578 0)"/>
      <use xlink:href="#DejaVuSans-79" transform="translate(960.351562 0)"/>
      <use xlink:href="#DejaVuSans-20" transform="translate(1019.53125 0)"/>
      <use xlink:href="#DejaVuSans-69" transform="translate(1051.318359 0)"/>
      <use xlink:href="#DejaVuSans-6e" transform="translate(1079.101562 0)"/>
      <use xlink:href="#DejaVuSans-64" transform="translate(1142.480469 0)"/>
      <use xlink:href="#DejaVuSans-65" transform="translate(1205.957031 0)"/>
      <use xlink:href="#DejaVuSans-78" transform="translate(1265.730469 0)"/>
     </g>
    </g>
   </g>
   <g id="line2d_17">
    <path d="M 77.117159 271.630281 
L 77.726591 273.937892 
L 78.336022 273.937892 
L 78.945454 276.032912 
L 80.164317 275.324824 
L 81.38318 275.324824 
L 81.992612 277.175466 
L 82.602044 276.690159 
L 83.211475 277.5287 
L 83.820907 275.690884 
L 84.430338 274.775636 
L 86.258633 274.838008 
L 86.868065 275.365072 
L 87.477496 276.0648 
L 88.086928 275.742647 
L 88.69636 273.033988 
L 89.915223 272.688664 
L 91.134086 274.282002 
L 91.743518 276.683591 
L 92.352949 276.683591 
L 92.962381 275.169139 
L 94.181244 275.231473 
L 94.790676 274.576719 
L 95.400107 274.572476 
L 96.009539 273.957687 
L 96.618971 271.662371 
L 99.056697 271.561238 
L 99.666129 269.790235 
L 100.27556 269.960494 
L 100.884992 271.614473 
L 101.494424 278.097044 
L 102.713287 278.159084 
L 103.322718 278.771486 
L 103.93215 283.331841 
L 105.151013 283.169061 
L 105.760445 282.167269 
L 106.979308 282.228903 
L 107.58874 282.111454 
L 108.198171 280.56562 
L 108.807603 279.547363 
L 109.417034 295.737169 
L 111.245329 295.6823 
L 111.854761 296.592287 
L 112.464192 297.897157 
L 113.073624 301.148123 
L 113.683056 298.466351 
L 114.292487 298.618489 
L 115.511351 298.304136 
L 116.120782 299.224004 
L 116.730214 288.416175 
L 117.339645 301.474637 
L 117.949077 302.720186 
L 118.558509 303.408855 
L 119.777372 303.088677 
L 121.605667 305.528714 
L 122.215098 306.392708 
L 122.82453 308.631165 
L 124.043393 308.631165 
L 124.652825 308.512712 
L 125.262256 310.77303 
L 125.871688 314.390172 
L 126.48112 315.924853 
L 127.090551 316.360207 
L 128.309414 316.360207 
L 128.918846 320.146798 
L 129.528278 320.861073 
L 130.137709 321.201806 
L 130.747141 323.419045 
L 131.356572 323.894124 
L 132.575436 323.951585 
L 133.184867 322.855525 
L 133.794299 325.566772 
L 134.40373 327.040987 
L 135.013162 327.158046 
L 135.622594 328.009753 
L 136.841457 328.009753 
L 137.450889 326.006653 
L 138.669752 319.150579 
L 139.279183 318.128497 
L 141.107478 318.186534 
L 141.71691 318.989899 
L 142.326341 319.567593 
L 142.935773 321.595316 
L 143.545205 318.538708 
L 144.154636 318.1684 
L 145.373499 318.226434 
L 145.982931 323.403079 
L 146.592363 321.989374 
L 147.201794 321.681691 
L 147.811226 319.911849 
L 148.420658 324.438041 
L 149.639521 324.495447 
L 150.248952 324.215739 
L 150.858384 324.770415 
L 151.467816 326.493472 
L 152.077247 327.162283 
L 152.686679 328.475796 
L 153.905542 328.774035 
L 154.514974 325.040152 
L 155.124405 327.701168 
L 155.733837 328.849613 
L 156.343268 335.673748 
L 156.9527 335.817321 
L 158.171563 335.87359 
L 158.780995 334.088583 
L 159.390426 336.163913 
L 159.999858 335.781053 
L 160.60929 334.156193 
L 161.218721 333.968201 
L 162.437585 333.40527 
L 163.047016 333.635082 
L 163.656448 329.185596 
L 164.265879 329.129792 
L 164.875311 328.498763 
L 165.484743 326.884756 
L 166.703606 327.258478 
L 167.313037 328.082406 
L 167.922469 332.594013 
L 168.531901 331.05367 
L 169.141332 331.339437 
L 169.750764 333.264734 
L 170.969627 333.264734 
L 171.579059 333.083085 
L 172.18849 333.12631 
L 172.797922 333.621861 
L 173.407354 332.876462 
L 174.016785 335.550658 
L 175.235648 335.606954 
L 175.84508 347.751142 
L 176.454512 347.751142 
L 177.063943 349.494798 
L 177.673375 337.728691 
L 178.282806 336.029068 
L 179.50167 336.085316 
L 180.111101 336.384496 
L 180.720533 337.041 
L 181.329964 337.070821 
L 181.939396 342.139465 
L 182.548828 339.935108 
L 183.767691 339.990965 
L 184.377123 338.097434 
L 184.986554 338.258777 
L 186.205417 342.131722 
L 186.814849 344.604922 
L 188.033712 344.660313 
L 189.252575 343.246082 
L 190.471439 343.325127 
L 191.08087 341.95474 
L 192.299733 341.95474 
L 192.909165 342.224594 
L 193.518597 338.517146 
L 194.128028 338.587686 
L 194.73746 339.798024 
L 195.346892 340.38847 
L 196.565755 340.38847 
L 197.175186 340.580478 
L 197.784618 339.743313 
L 198.39405 341.297495 
L 199.003481 340.274804 
L 199.612913 338.934979 
L 200.831776 338.990936 
L 201.441208 339.680971 
L 202.050639 339.680971 
L 203.269502 340.831223 
L 203.878934 338.669845 
L 205.097797 338.725828 
L 205.707229 337.481874 
L 206.316661 339.442457 
L 206.926092 340.413958 
L 207.535524 337.717307 
L 208.144955 338.375735 
L 209.363819 338.431748 
L 209.97325 339.483365 
L 210.582682 338.467956 
L 211.192113 339.681973 
L 211.801545 338.441465 
L 212.410977 339.637176 
L 213.62984 339.693063 
L 214.239271 341.253553 
L 214.848703 341.253553 
L 215.458135 341.051203 
L 216.067566 341.495877 
L 218.505293 341.495877 
L 219.114724 341.269591 
L 219.724156 340.719511 
L 220.333588 341.027704 
L 220.943019 343.921514 
L 222.161882 343.976973 
L 222.771314 345.62174 
L 223.380746 343.922995 
L 223.990177 343.922995 
L 224.599609 344.903681 
L 225.20904 343.162914 
L 226.427904 343.218448 
L 227.037335 342.19752 
L 227.646767 345.377485 
L 228.256198 337.939777 
L 228.86563 339.943425 
L 229.475062 342.499569 
L 231.303357 342.394343 
L 231.912788 342.805101 
L 232.52222 342.505741 
L 233.131651 335.025134 
L 233.741083 333.358216 
L 234.959946 333.41473 
L 235.569378 330.162813 
L 236.178809 331.507569 
L 236.788241 328.710649 
L 237.397673 330.099848 
L 238.007104 337.335732 
L 239.225967 337.391849 
L 239.835399 338.953257 
L 240.444831 338.953257 
L 241.054262 341.138821 
L 241.663694 337.169758 
L 242.273126 338.00043 
L 243.491989 338.056481 
L 244.10142 337.794561 
L 244.710852 332.809154 
L 245.320284 330.034646 
L 245.929715 329.872519 
L 246.539147 329.938172 
L 247.75801 329.938172 
L 248.367442 330.369819 
L 248.976873 325.577168 
L 249.586305 323.452228 
L 250.195736 324.12578 
L 250.805168 327.863311 
L 252.024031 327.920375 
L 252.633463 330.722918 
L 253.242895 330.137974 
L 253.852326 331.737072 
L 254.461758 333.900667 
L 255.071189 334.081475 
L 256.290053 334.081475 
L 256.899484 335.87553 
L 257.508916 333.252252 
L 258.118347 335.575745 
L 258.727779 333.509457 
L 259.337211 333.898111 
L 261.165505 333.93878 
L 261.774937 334.155746 
L 262.384369 335.396624 
L 262.9938 335.034688 
L 263.603232 336.205178 
L 264.822095 336.715222 
L 265.431527 335.643901 
L 266.040958 334.858517 
L 266.65039 335.255751 
L 267.259822 331.360292 
L 267.869253 324.934362 
L 269.088116 324.991719 
L 269.697548 320.350531 
L 270.30698 317.161341 
L 270.916411 316.945917 
L 271.525843 318.774039 
L 272.135274 318.577145 
L 273.963569 318.603413 
L 274.573001 319.760119 
L 275.182432 320.645131 
L 275.791864 321.14953 
L 276.401296 320.152238 
L 277.620159 320.152238 
L 278.229591 323.417566 
L 278.839022 324.821436 
L 279.448454 325.237565 
L 280.057885 319.444058 
L 280.667317 320.514982 
L 281.88618 320.572781 
L 282.495612 330.09915 
L 283.105043 329.453708 
L 283.714475 328.019318 
L 284.323907 327.957791 
L 284.933338 330.312479 
L 286.152201 330.369298 
L 286.761633 326.648653 
L 287.371065 327.125424 
L 287.980496 326.090287 
L 288.589928 328.432186 
L 289.19936 328.072208 
L 290.418223 328.072208 
L 291.027654 327.79792 
L 291.637086 323.267802 
L 292.246518 323.025046 
L 292.855949 325.396562 
L 293.465381 325.951854 
L 295.293676 326.082197 
L 295.903107 322.204066 
L 297.12197 320.825808 
L 297.731402 320.97593 
L 521.392803 320.97593 
L 522.002235 318.374744 
L 522.611666 312.789294 
L 523.221098 313.28091 
L 523.83053 310.428667 
L 525.049393 310.487474 
L 525.658824 314.797438 
L 526.268256 314.624893 
L 526.877688 315.801231 
L 527.487119 315.921273 
L 528.096551 314.180187 
L 529.315414 314.180187 
L 529.924846 315.09633 
L 530.534277 309.244923 
L 531.143709 316.329073 
L 531.75314 316.725803 
L 532.362572 316.517365 
L 533.581435 316.434886 
L 534.190867 318.765301 
L 534.800299 320.152086 
L 535.40973 316.831779 
L 536.019162 318.512969 
L 536.628593 318.284086 
L 537.847457 316.819359 
L 538.456888 318.820993 
L 539.06632 319.874663 
L 539.675751 320.236067 
L 540.285183 321.344036 
L 540.894615 316.073332 
L 542.113478 315.504406 
L 542.722909 316.178552 
L 543.332341 313.462222 
L 543.941773 313.728982 
L 544.551204 314.648884 
L 545.160636 314.940557 
L 546.988931 315.152348 
L 547.598362 308.064217 
L 548.207794 306.937225 
L 548.817226 310.353093 
L 549.426657 307.583346 
L 550.64552 307.642438 
L 551.254952 310.026006 
L 551.864384 311.636816 
L 552.473815 310.958127 
L 553.083247 313.275213 
L 553.692678 312.953009 
L 554.911542 312.953009 
L 555.520973 313.479724 
L 556.130405 312.501069 
L 556.739837 312.245135 
L 557.349268 314.786516 
L 557.9587 304.453348 
L 559.177563 303.976323 
L 559.786995 303.532049 
L 560.396426 303.367011 
L 561.005858 303.334836 
L 561.615289 303.069776 
L 562.224721 304.106738 
L 563.443584 302.232058 
L 564.053016 304.349115 
L 564.662447 310.840112 
L 565.271879 310.6608 
L 565.881311 311.438785 
L 566.490742 315.655474 
L 567.709605 316.076337 
L 568.319037 315.701318 
L 568.928469 314.444877 
L 569.5379 314.107859 
L 570.147332 306.001677 
L 570.756764 310.544851 
L 571.975627 310.603646 
L 572.585058 309.728964 
L 573.19449 312.936409 
L 573.803922 313.537771 
L 574.413353 312.244703 
L 576.241648 313.399629 
L 576.85108 316.218188 
L 577.460511 306.448506 
L 578.069943 300.818531 
L 578.679374 302.576307 
L 579.288806 294.501764 
L 580.507669 293.979784 
L 581.726533 298.97397 
L 582.335964 301.366954 
L 582.945396 309.249383 
L 583.554827 321.465554 
L 584.773691 320.720551 
L 585.383122 317.173473 
L 586.601985 315.840355 
L 587.211417 318.325989 
L 587.820849 315.965085 
L 589.039712 315.492409 
L 589.649143 326.014768 
L 590.258575 327.373995 
L 590.868007 324.952274 
L 591.477438 323.82597 
L 592.08687 324.903013 
L 593.305733 324.844227 
L 593.915165 328.260016 
L 595.134028 347.60943 
L 595.74346 351.230054 
L 596.352891 350.101448 
L 597.571754 350.521696 
L 598.181186 351.143751 
L 599.400049 347.909032 
L 600.009481 355.835138 
L 600.618912 356.266819 
L 601.837776 356.078155 
L 602.447207 355.551348 
L 603.056639 358.977326 
L 603.666071 365.28928 
L 604.275502 363.759436 
L 604.884934 372.328882 
L 606.103797 372.541094 
L 606.713229 373.00985 
L 607.32266 372.365649 
L 607.932092 372.003478 
L 608.541523 364.426044 
L 609.150955 365.478877 
L 610.369818 366.432599 
L 610.97925 367.769015 
L 611.588681 368.109849 
L 612.198113 367.63836 
L 612.807545 368.409825 
L 613.416976 365.090709 
L 614.635839 364.63325 
L 615.245271 359.627118 
L 617.073566 372.131234 
L 617.682998 353.357439 
L 618.901861 352.287647 
L 619.511292 349.115655 
L 620.120724 354.259402 
L 620.730156 356.78769 
L 621.339587 352.899341 
L 621.949019 357.479726 
L 623.167882 358.113295 
L 623.777314 357.127897 
L 624.996177 353.307794 
L 625.605608 354.321934 
L 626.21504 346.449771 
L 628.043335 347.183199 
L 628.652767 345.309583 
L 629.262198 347.473473 
L 629.87163 347.737733 
L 630.481061 346.181231 
L 631.699925 346.178264 
L 632.309356 346.900738 
L 632.918788 346.520923 
L 633.528219 351.911507 
L 634.137651 351.935054 
L 634.747083 344.658078 
L 635.965946 345.139661 
L 636.575377 339.661044 
L 637.184809 339.055436 
L 637.794241 340.314758 
L 638.403672 349.219059 
L 639.013104 348.160592 
L 640.231967 348.483208 
L 640.841399 346.326154 
L 641.45083 345.239194 
L 642.060262 346.644061 
L 642.669694 350.148444 
L 643.279125 356.131915 
L 644.497988 356.269864 
L 645.10742 357.323801 
L 645.716852 355.214328 
L 646.326283 350.94163 
L 646.935715 356.371052 
L 647.545146 353.726564 
L 648.76401 354.121853 
L 649.373441 351.724904 
L 649.982873 347.321869 
L 650.592305 348.649736 
L 651.201736 351.078937 
L 651.811168 351.523894 
L 653.030031 350.920117 
L 653.639463 342.347243 
L 654.248894 339.420028 
L 654.858326 337.461881 
L 655.467757 346.175114 
L 656.077189 346.81336 
L 657.296052 345.975457 
L 657.905484 355.32316 
L 658.514915 354.861061 
L 659.124347 359.304986 
L 659.733779 359.719367 
L 660.34321 359.672333 
L 661.562074 359.160394 
L 662.171505 359.229901 
L 662.780937 359.488826 
L 663.390368 357.09705 
L 664.609232 366.640215 
L 665.828095 366.693402 
L 666.437526 365.235835 
L 667.046958 369.272901 
L 667.65639 370.84659 
L 668.265821 373.285347 
L 668.875253 375.192169 
L 670.094116 375.192279 
L 670.703548 375.508053 
L 671.312979 376.341693 
L 671.922411 376.236205 
L 673.141274 367.889335 
L 674.360137 367.863676 
L 674.969569 369.662373 
L 675.579001 372.647274 
L 676.188432 371.613922 
L 676.797864 380.583906 
L 677.407295 382.410852 
L 743.835341 382.410852 
L 743.835341 382.410852 
" clip-path="url(#pe7ecda6bd1)" style="fill: none; stroke: #1f77b4; stroke-width: 1.5; stroke-linecap: square"/>
   </g>
   <g id="line2d_18">
    <path d="M 77.726591 275.40628 
L 78.336022 280.262699 
L 78.945454 279.893453 
L 79.554886 280.511363 
L 80.164317 278.06731 
L 81.992612 276.505354 
L 82.602044 271.644986 
L 83.211475 274.162155 
L 83.820907 274.406301 
L 84.430338 275.991846 
L 86.258633 275.388952 
L 86.868065 274.259985 
L 87.477496 275.058191 
L 88.086928 273.798121 
L 88.69636 276.278386 
L 90.524655 276.510622 
L 91.134086 279.414792 
L 91.743518 287.945793 
L 92.352949 291.607861 
L 92.962381 290.99596 
L 94.790676 293.01008 
L 95.400107 292.804871 
L 96.009539 291.575329 
L 96.618971 291.551778 
L 97.228402 289.823169 
L 99.056697 292.146721 
L 99.666129 292.654396 
L 100.27556 292.285135 
L 100.884992 292.520709 
L 101.494424 301.277994 
L 103.322718 295.074273 
L 103.93215 295.544586 
L 104.541582 294.465547 
L 105.151013 294.795114 
L 105.760445 295.657385 
L 108.198171 291.680007 
L 108.807603 296.044022 
L 109.417034 299.234348 
L 110.026466 304.161505 
L 111.854761 305.186149 
L 112.464192 305.719933 
L 113.073624 303.853218 
L 113.683056 301.145587 
L 114.292487 292.162352 
L 116.120782 297.781891 
L 116.730214 285.999312 
L 117.339645 277.777653 
L 117.949077 280.369396 
L 118.558509 279.226471 
L 120.386803 282.386051 
L 120.996235 281.029629 
L 121.605667 281.261082 
L 122.215098 278.709723 
L 122.82453 283.590668 
L 124.652825 280.197994 
L 125.262256 281.556025 
L 125.871688 275.6774 
L 126.48112 278.071432 
L 127.090551 275.153412 
L 129.528278 278.799543 
L 130.137709 277.348268 
L 130.747141 278.364628 
L 131.356572 280.272638 
L 133.184867 278.249394 
L 133.794299 274.851909 
L 134.40373 276.221995 
L 135.013162 275.795614 
L 135.622594 270.29903 
L 137.450889 274.094877 
L 138.06032 270.008611 
L 138.669752 268.681263 
L 139.279183 268.313534 
L 141.71691 273.969684 
L 142.326341 281.213812 
L 142.935773 284.043737 
L 143.545205 288.672928 
L 144.154636 291.763872 
L 145.982931 297.287738 
L 146.592363 297.512837 
L 147.201794 293.378066 
L 147.811226 290.681109 
L 148.420658 295.811161 
L 150.248952 299.912152 
L 150.858384 302.267854 
L 151.467816 295.559571 
L 152.077247 295.160049 
L 152.686679 293.942737 
L 154.514974 298.551465 
L 155.124405 299.009262 
L 155.733837 298.823273 
L 156.343268 292.407466 
L 156.9527 296.546982 
L 158.780995 304.086455 
L 159.390426 306.034348 
L 159.999858 309.2973 
L 160.60929 305.949254 
L 161.218721 305.457778 
L 163.047016 308.783555 
L 163.656448 305.285097 
L 164.265879 305.592786 
L 164.875311 302.544426 
L 165.484743 303.055772 
L 167.313037 302.491637 
L 167.922469 299.244914 
L 168.531901 298.920624 
L 169.141332 297.221162 
L 169.750764 301.49162 
L 171.579059 305.444709 
L 172.18849 303.263964 
L 172.797922 301.504318 
L 173.407354 300.953056 
L 174.016785 289.431692 
L 175.84508 300.837237 
L 176.454512 302.975541 
L 177.063943 302.997913 
L 177.673375 303.427819 
L 178.282806 299.164655 
L 180.111101 299.979574 
L 181.329964 303.849381 
L 181.939396 301.139378 
L 182.548828 299.100718 
L 184.377123 303.354051 
L 184.986554 303.827065 
L 185.595986 309.196378 
L 186.205417 309.067572 
L 186.814849 316.741755 
L 188.643144 316.068708 
L 189.252575 304.065496 
L 189.862007 295.949361 
L 190.471439 296.906215 
L 191.08087 296.28839 
L 192.909165 295.319763 
L 193.518597 298.22244 
L 194.128028 297.761268 
L 194.73746 298.462085 
L 195.346892 296.501844 
L 197.175186 296.191524 
L 197.784618 297.297221 
L 198.39405 302.059562 
L 199.003481 314.214956 
L 199.612913 313.838171 
L 201.441208 317.306826 
L 202.050639 316.199513 
L 202.660071 312.094332 
L 203.269502 306.772016 
L 203.878934 308.259806 
L 205.707229 307.438088 
L 206.316661 314.275528 
L 206.926092 313.439555 
L 208.144955 305.581444 
L 209.97325 305.318405 
L 210.582682 304.807909 
L 211.192113 300.325284 
L 211.801545 298.992554 
L 212.410977 292.023885 
L 214.239271 290.898763 
L 214.848703 289.975216 
L 215.458135 287.170764 
L 216.067566 282.960489 
L 216.676998 280.504319 
L 218.505293 281.910283 
L 219.724156 289.427468 
L 220.333588 289.655204 
L 220.943019 287.470269 
L 222.771314 291.70953 
L 223.380746 287.960954 
L 224.599609 285.002784 
L 225.20904 283.261711 
L 227.037335 284.1964 
L 227.646767 288.201059 
L 228.256198 282.486718 
L 228.86563 286.686584 
L 229.475062 288.906303 
L 231.303357 291.59037 
L 231.912788 290.364808 
L 232.52222 287.781656 
L 233.131651 278.733623 
L 233.741083 276.312551 
L 235.569378 278.730182 
L 236.178809 277.273462 
L 236.788241 276.717781 
L 237.397673 278.715775 
L 238.007104 282.09433 
L 239.835399 274.292258 
L 240.444831 278.48567 
L 241.054262 291.432273 
L 241.663694 293.868962 
L 242.273126 294.890992 
L 244.10142 307.100044 
L 244.710852 310.130979 
L 245.320284 301.365128 
L 245.929715 301.765333 
L 246.539147 300.023964 
L 248.367442 297.992482 
L 249.586305 299.103081 
L 250.195736 311.398128 
L 250.805168 306.664253 
L 252.633463 311.989161 
L 253.242895 310.939168 
L 253.852326 310.200007 
L 254.461758 312.447606 
L 255.071189 300.31975 
L 256.899484 299.913424 
L 257.508916 305.769056 
L 258.118347 307.661546 
L 258.727779 309.048446 
L 259.337211 310.121387 
L 261.774937 308.633052 
L 262.384369 315.428708 
L 262.9938 317.581352 
L 263.603232 318.504641 
L 265.431527 317.657159 
L 266.040958 330.648598 
L 266.65039 330.020784 
L 267.259822 341.628508 
L 267.869253 344.676994 
L 269.697548 345.293228 
L 270.30698 344.707496 
L 270.916411 346.474033 
L 271.525843 345.527638 
L 272.135274 349.329666 
L 273.963569 348.649312 
L 274.573001 349.658955 
L 275.182432 353.804459 
L 276.401296 352.73687 
L 278.229591 356.378744 
L 278.839022 356.696492 
L 279.448454 353.54857 
L 280.057885 352.805735 
L 280.667317 353.636303 
L 282.495612 344.721272 
L 283.105043 343.624372 
L 283.714475 347.391121 
L 284.323907 347.865412 
L 284.933338 348.167638 
L 286.761633 351.247749 
L 287.371065 351.892258 
L 287.980496 350.507804 
L 288.589928 349.505 
L 289.19936 351.321303 
L 291.027654 353.402341 
L 291.637086 348.935759 
L 292.246518 351.61626 
L 292.855949 350.133583 
L 293.465381 349.816139 
L 295.903107 345.567617 
L 296.512539 346.309394 
L 297.12197 348.507504 
L 297.731402 348.00017 
L 300.169129 348.500726 
L 300.77856 345.87868 
L 301.387992 349.242279 
L 301.997423 353.942642 
L 303.825718 353.790079 
L 304.43515 352.325629 
L 305.654013 355.965354 
L 306.263445 361.04789 
L 308.091739 361.057645 
L 308.701171 360.917151 
L 309.310603 356.172396 
L 309.920034 349.512654 
L 310.529466 349.71384 
L 312.357761 346.176369 
L 312.967192 345.414385 
L 313.576624 351.122848 
L 314.186056 349.434362 
L 314.795487 349.755226 
L 316.623782 347.731212 
L 317.842645 359.171755 
L 318.452077 370.367833 
L 319.061508 358.922024 
L 320.889803 358.277404 
L 322.108666 358.49682 
L 322.718098 363.562816 
L 323.32753 363.412599 
L 325.155825 364.392671 
L 325.765256 363.155715 
L 326.374688 362.311859 
L 326.984119 362.643901 
L 327.593551 366.554017 
L 329.421846 367.176751 
L 330.031277 366.870563 
L 330.640709 363.907324 
L 331.250141 363.400988 
L 331.859572 365.655691 
L 333.687867 366.210408 
L 334.297299 371.171428 
L 334.90673 371.653025 
L 335.516162 371.667973 
L 336.125594 374.067658 
L 337.953888 372.630259 
L 338.56332 379.500493 
L 339.172752 379.113033 
L 339.782183 379.192419 
L 340.391615 369.699019 
L 342.21991 369.909928 
L 342.829341 367.784181 
L 343.438773 366.133457 
L 344.048204 361.937404 
L 344.657636 364.627637 
L 346.485931 366.184457 
L 347.095363 362.12061 
L 347.704794 352.361261 
L 348.923657 338.064275 
L 350.751952 334.45766 
L 351.361384 339.491568 
L 351.970815 337.297117 
L 352.580247 339.380979 
L 353.189679 338.389548 
L 355.017973 340.747799 
L 355.627405 348.85768 
L 356.236837 346.225662 
L 356.846268 348.88989 
L 359.283995 351.237128 
L 359.893426 350.936963 
L 360.502858 349.701032 
L 361.11229 347.40226 
L 361.721721 345.75259 
L 363.550016 346.009393 
L 364.159448 348.671836 
L 364.768879 349.806887 
L 365.378311 349.098952 
L 365.987742 348.829282 
L 367.816037 350.092149 
L 368.425469 352.67527 
L 369.0349 348.01073 
L 369.644332 348.081624 
L 370.253764 349.279089 
L 372.082059 346.996475 
L 372.69149 338.54663 
L 373.300922 332.481218 
L 373.910353 329.311786 
L 374.519785 331.017518 
L 376.34808 330.504738 
L 376.957511 328.792902 
L 377.566943 331.259068 
L 378.176375 336.393914 
L 378.785806 336.672407 
L 380.614101 335.975933 
L 381.223533 334.03238 
L 381.832964 334.037928 
L 382.442396 338.076101 
L 383.051828 333.709197 
L 384.880122 334.982229 
L 385.489554 334.82356 
L 386.098986 341.381171 
L 386.708417 340.962045 
L 387.317849 341.734226 
L 389.146144 340.513117 
L 389.755575 339.928209 
L 390.365007 339.505086 
L 390.974438 338.462285 
L 391.58387 347.171116 
L 393.412165 352.596367 
L 394.021597 353.023146 
L 394.631028 358.665474 
L 395.24046 360.297105 
L 395.849891 361.032319 
L 397.678186 362.428138 
L 398.287618 357.53465 
L 398.897049 353.66437 
L 399.506481 345.073569 
L 400.115913 344.282545 
L 401.944207 344.874825 
L 402.553639 350.143258 
L 403.772502 357.910127 
L 404.381934 357.018288 
L 406.210229 359.480393 
L 406.81966 358.93398 
L 407.429092 356.70505 
L 408.038524 351.122684 
L 408.647955 350.989187 
L 410.47625 351.530339 
L 411.085682 349.747539 
L 411.695113 352.856983 
L 412.304545 349.461614 
L 412.913976 348.385852 
L 414.742271 344.928658 
L 415.351703 346.001817 
L 415.961134 343.386035 
L 416.570566 342.590585 
L 417.179998 342.314109 
L 419.008293 341.318237 
L 419.617724 343.89858 
L 420.227156 343.766687 
L 420.836587 343.028793 
L 421.446019 341.56834 
L 423.274314 340.737635 
L 423.883745 340.149892 
L 424.493177 340.025456 
L 425.102609 339.238014 
L 425.71204 339.132547 
L 427.540335 339.910617 
L 428.149767 342.126239 
L 428.759198 345.785916 
L 429.36863 345.414536 
L 429.978062 344.666665 
L 431.806356 344.307504 
L 432.415788 344.955138 
L 433.02522 347.724128 
L 433.634651 349.665865 
L 434.244083 347.597091 
L 436.681809 350.259048 
L 437.291241 346.838503 
L 437.900672 349.819093 
L 438.510104 346.559274 
L 440.338399 346.868513 
L 440.947831 346.251267 
L 441.557262 344.918622 
L 442.166694 345.243431 
L 442.776125 344.489918 
L 444.60442 342.837501 
L 445.213852 341.72523 
L 445.823283 341.011972 
L 447.042147 342.137096 
L 448.870441 343.156006 
L 449.479873 340.765198 
L 450.089305 339.912104 
L 451.308168 337.555094 
L 453.136463 338.429086 
L 453.745894 339.761449 
L 454.964758 335.360573 
L 455.574189 334.15837 
L 457.402484 335.806555 
L 458.011916 334.677741 
L 458.621347 337.084735 
L 459.84021 337.133532 
L 461.668505 339.790692 
L 462.277937 343.233139 
L 462.887368 348.15991 
L 463.4968 344.588198 
L 464.106232 346.568946 
L 465.934527 344.557783 
L 467.15339 342.376924 
L 467.762821 339.901273 
L 468.372253 339.642974 
L 470.200548 335.948376 
L 470.809979 334.322341 
L 471.419411 335.343441 
L 472.028843 334.559294 
L 472.638274 331.943187 
L 474.466569 332.301087 
L 475.076001 330.817919 
L 475.685432 331.043651 
L 476.294864 330.283029 
L 476.904296 332.046902 
L 478.73259 332.98459 
L 479.342022 337.720284 
L 479.951454 338.426279 
L 480.560885 338.762246 
L 481.170317 344.727956 
L 482.998612 345.195711 
L 483.608043 341.371933 
L 484.217475 341.268855 
L 484.826906 340.044776 
L 485.436338 337.036204 
L 487.264633 338.862149 
L 487.874065 341.420811 
L 488.483496 335.546923 
L 489.092928 335.377439 
L 489.702359 338.253402 
L 491.530654 335.557585 
L 492.749517 337.238861 
L 493.358949 337.829137 
L 493.968381 340.422365 
L 495.796675 338.594647 
L 496.406107 340.495965 
L 497.015539 343.896369 
L 497.62497 343.878923 
L 498.234402 344.254954 
L 500.062697 343.859587 
L 500.672128 348.986947 
L 501.28156 348.88072 
L 501.890992 347.460165 
L 502.500423 355.848485 
L 504.328718 363.260156 
L 504.93815 360.338836 
L 505.547581 358.876919 
L 506.157013 359.95746 
L 506.766444 357.934479 
L 508.594739 360.113795 
L 509.204171 358.788055 
L 509.813603 346.071243 
L 510.423034 345.447465 
L 511.032466 343.182897 
L 512.860761 344.236486 
L 513.470192 347.223865 
L 514.079624 346.337741 
L 514.689055 346.56322 
L 515.298487 341.79601 
L 517.736213 340.211567 
L 518.345645 343.406092 
L 518.955077 344.575909 
L 519.564508 344.663043 
L 743.835341 344.663043 
L 743.835341 344.663043 
" clip-path="url(#pe7ecda6bd1)" style="fill: none; stroke: #ff7f0e; stroke-width: 1.5; stroke-linecap: square"/>
   </g>
   <g id="line2d_19">
    <path d="M 77.726591 277.209395 
L 78.336022 272.365926 
L 78.945454 274.701629 
L 79.554886 276.079914 
L 80.164317 272.882154 
L 81.992612 272.399087 
L 82.602044 266.068421 
L 83.211475 268.500551 
L 83.820907 267.972444 
L 84.430338 264.358653 
L 86.258633 264.422068 
L 86.868065 263.251751 
L 87.477496 270.692042 
L 88.086928 270.905333 
L 88.69636 269.320296 
L 90.524655 266.120432 
L 91.134086 268.821874 
L 91.743518 259.548129 
L 92.352949 263.380515 
L 92.962381 263.443185 
L 94.790676 262.601891 
L 95.400107 263.099519 
L 96.009539 262.851465 
L 97.228402 255.694352 
L 99.056697 257.064938 
L 99.666129 256.095934 
L 100.27556 256.987044 
L 100.884992 253.380777 
L 101.494424 243.079572 
L 103.322718 242.723544 
L 103.93215 241.632519 
L 104.541582 235.483234 
L 105.151013 235.549536 
L 105.760445 236.246869 
L 107.58874 232.932161 
L 108.198171 232.961702 
L 108.807603 237.222098 
L 109.417034 218.612778 
L 110.026466 220.001 
L 111.854761 220.229203 
L 112.464192 211.432133 
L 113.073624 208.992188 
L 113.683056 209.116855 
L 114.292487 215.654598 
L 116.120782 209.124845 
L 116.730214 205.62602 
L 117.339645 211.337268 
L 117.949077 210.547608 
L 118.558509 225.200891 
L 120.386803 220.099092 
L 120.996235 216.029466 
L 121.605667 215.958538 
L 122.215098 213.535144 
L 122.82453 212.12931 
L 124.652825 207.379538 
L 125.262256 208.972635 
L 125.871688 207.33781 
L 126.48112 209.925658 
L 127.090551 211.308552 
L 128.918846 214.494599 
L 129.528278 212.11325 
L 130.747141 218.115197 
L 131.356572 218.118298 
L 133.184867 219.314725 
L 133.794299 216.423822 
L 134.40373 217.526731 
L 135.013162 215.990634 
L 135.622594 219.194009 
L 137.450889 216.85875 
L 138.06032 212.397936 
L 138.669752 211.632436 
L 139.279183 213.728829 
L 141.71691 209.784503 
L 142.326341 216.371194 
L 142.935773 214.704048 
L 143.545205 217.245658 
L 144.154636 216.761684 
L 145.982931 221.449916 
L 146.592363 219.914351 
L 147.201794 213.840098 
L 147.811226 208.946346 
L 148.420658 208.157027 
L 150.248952 212.358567 
L 150.858384 214.240997 
L 151.467816 208.565292 
L 152.077247 198.027752 
L 152.686679 197.026819 
L 154.514974 193.45728 
L 155.124405 185.154343 
L 155.733837 185.244272 
L 156.343268 194.245034 
L 156.9527 196.558187 
L 158.780995 189.242902 
L 159.390426 180.818538 
L 159.999858 182.711313 
L 160.60929 179.082402 
L 161.218721 178.244784 
L 163.047016 174.884637 
L 163.656448 178.3862 
L 164.265879 178.411886 
L 164.875311 175.278311 
L 165.484743 176.753259 
L 167.313037 174.890892 
L 167.922469 169.34631 
L 168.531901 173.708616 
L 169.141332 168.866869 
L 169.750764 174.029332 
L 171.579059 168.425878 
L 172.797922 165.798178 
L 173.407354 164.970861 
L 174.016785 150.712108 
L 175.84508 164.745495 
L 176.454512 162.088958 
L 177.063943 162.797872 
L 177.673375 147.907592 
L 178.282806 150.392192 
L 180.111101 149.565425 
L 180.720533 148.84923 
L 181.329964 153.271604 
L 181.939396 155.459266 
L 182.548828 155.990082 
L 184.377123 161.36959 
L 185.595986 159.557995 
L 186.205417 153.689828 
L 186.814849 146.627542 
L 188.643144 144.957911 
L 189.252575 157.276512 
L 189.862007 147.269784 
L 190.471439 147.982426 
L 191.08087 145.084463 
L 192.909165 145.626261 
L 193.518597 143.592192 
L 194.128028 132.206518 
L 194.73746 134.190371 
L 195.346892 131.302116 
L 197.175186 134.552832 
L 197.784618 136.715514 
L 198.39405 130.368939 
L 199.003481 137.986029 
L 199.612913 136.876988 
L 201.441208 140.717515 
L 202.050639 140.873193 
L 203.269502 127.295607 
L 203.878934 123.472928 
L 205.707229 121.096611 
L 206.316661 118.449668 
L 206.926092 117.043362 
L 207.535524 120.387448 
L 208.144955 116.001266 
L 209.97325 119.603151 
L 210.582682 117.150278 
L 211.192113 117.606742 
L 211.801545 117.024706 
L 212.410977 113.983306 
L 214.239271 110.067634 
L 214.848703 109.148899 
L 215.458135 104.475126 
L 216.067566 98.765074 
L 216.676998 96.015046 
L 218.505293 93.597446 
L 219.114724 98.299482 
L 219.724156 97.658754 
L 220.333588 99.778684 
L 220.943019 93.552882 
L 222.771314 98.759767 
L 223.380746 102.004851 
L 223.990177 101.080985 
L 225.20904 95.297361 
L 227.037335 96.628429 
L 227.646767 90.847439 
L 228.86563 74.637108 
L 229.475062 76.856108 
L 231.303357 74.922898 
L 231.912788 79.796517 
L 232.52222 81.528135 
L 233.131651 79.903063 
L 233.741083 75.488658 
L 235.569378 69.170246 
L 236.178809 70.276452 
L 236.788241 70.272895 
L 237.397673 67.043478 
L 238.007104 68.757395 
L 239.835399 58.287957 
L 240.444831 53.644054 
L 241.054262 39.465398 
L 241.663694 44.220457 
L 242.273126 46.963298 
L 244.10142 62.770553 
L 244.710852 71.809698 
L 245.320284 70.005602 
L 245.929715 69.312133 
L 246.539147 76.000284 
L 248.367442 71.90873 
L 248.976873 71.906933 
L 249.586305 68.524655 
L 250.195736 79.338596 
L 250.805168 83.959456 
L 252.633463 78.584358 
L 253.242895 77.884554 
L 253.852326 76.852223 
L 254.461758 74.816308 
L 255.071189 57.432931 
L 256.899484 57.407581 
L 257.508916 63.502463 
L 258.118347 62.895878 
L 258.727779 60.247416 
L 259.337211 60.578762 
L 261.165505 63.002259 
L 261.774937 58.294999 
L 262.384369 68.102764 
L 262.9938 62.963519 
L 263.603232 73.195165 
L 265.431527 72.361868 
L 266.040958 90.351771 
L 266.65039 88.633832 
L 267.259822 105.114166 
L 269.697548 112.263804 
L 270.30698 109.635842 
L 270.916411 112.645034 
L 271.525843 110.214365 
L 272.135274 112.676933 
L 273.963569 111.83454 
L 274.573001 113.278999 
L 275.182432 116.279171 
L 275.791864 116.745061 
L 276.401296 112.813061 
L 278.229591 119.83973 
L 278.839022 120.160189 
L 279.448454 115.716342 
L 280.057885 120.01863 
L 280.667317 120.788578 
L 282.495612 129.47467 
L 283.105043 128.020184 
L 283.714475 132.239886 
L 284.323907 133.056879 
L 284.933338 133.214399 
L 286.761633 137.870767 
L 287.371065 147.556326 
L 287.980496 145.356017 
L 288.589928 144.597641 
L 289.19936 148.084046 
L 291.027654 150.429363 
L 291.637086 145.942262 
L 292.246518 143.84494 
L 292.855949 151.69457 
L 293.465381 150.684009 
L 295.903107 149.411792 
L 296.512539 147.915591 
L 297.12197 149.443786 
L 297.731402 147.798983 
L 300.169129 149.358349 
L 300.77856 148.283466 
L 301.387992 154.519649 
L 301.997423 146.123687 
L 303.825718 148.44116 
L 304.43515 148.54344 
L 305.044581 150.502383 
L 305.654013 153.99672 
L 306.263445 164.018862 
L 308.091739 165.503023 
L 308.701171 168.194094 
L 309.310603 162.389677 
L 309.920034 152.486835 
L 310.529466 153.781974 
L 312.357761 149.955809 
L 312.967192 149.171221 
L 313.576624 140.080563 
L 314.186056 140.268625 
L 314.795487 140.724324 
L 316.623782 138.213173 
L 317.233214 138.814428 
L 317.842645 130.76657 
L 318.452077 146.779911 
L 319.061508 156.286146 
L 320.889803 157.121886 
L 322.108666 156.954569 
L 322.718098 164.639466 
L 323.32753 163.503736 
L 325.155825 167.151979 
L 325.765256 165.758689 
L 326.374688 165.216768 
L 326.984119 165.790436 
L 327.593551 159.260549 
L 329.421846 156.286771 
L 330.031277 156.870756 
L 330.640709 151.141926 
L 331.250141 148.526805 
L 331.859572 152.558027 
L 333.687867 151.615162 
L 334.297299 156.893139 
L 334.90673 155.063251 
L 335.516162 155.994891 
L 336.125594 157.694256 
L 337.953888 155.5435 
L 338.56332 164.777242 
L 339.782183 164.448645 
L 340.391615 157.588192 
L 342.21991 169.927674 
L 342.829341 171.485603 
L 343.438773 170.013835 
L 344.048204 168.998012 
L 344.657636 183.865226 
L 346.485931 185.276229 
L 347.095363 190.986111 
L 347.704794 179.5632 
L 348.314226 170.757256 
L 348.923657 174.918875 
L 350.751952 172.21217 
L 351.361384 168.743932 
L 351.970815 169.130161 
L 352.580247 164.119896 
L 353.189679 167.343179 
L 355.017973 172.026575 
L 355.627405 182.571144 
L 356.236837 179.754213 
L 356.846268 183.523575 
L 359.283995 186.448848 
L 359.893426 184.954097 
L 360.502858 182.933077 
L 361.11229 183.33812 
L 361.721721 193.459135 
L 363.550016 195.511181 
L 364.159448 195.523585 
L 364.768879 199.827412 
L 365.378311 198.605813 
L 365.987742 198.877368 
L 367.816037 196.162158 
L 368.425469 202.473975 
L 369.0349 194.94308 
L 369.644332 199.128232 
L 370.253764 195.949971 
L 372.082059 198.992382 
L 373.300922 180.667504 
L 373.910353 183.151061 
L 374.519785 190.248475 
L 376.34808 191.060435 
L 376.957511 190.322065 
L 377.566943 185.141002 
L 378.176375 178.524909 
L 378.785806 176.89288 
L 380.614101 177.542012 
L 381.223533 183.680584 
L 381.832964 181.312967 
L 382.442396 187.307048 
L 383.051828 181.547128 
L 384.880122 183.982713 
L 385.489554 180.339728 
L 386.708417 194.644052 
L 387.317849 195.628472 
L 389.146144 197.320536 
L 389.755575 198.546476 
L 390.365007 197.853714 
L 390.974438 196.464587 
L 391.58387 205.875035 
L 393.412165 211.22727 
L 394.021597 211.579207 
L 394.631028 202.419834 
L 395.24046 204.366746 
L 395.849891 205.907551 
L 397.678186 208.277443 
L 398.287618 215.487981 
L 398.897049 214.266965 
L 399.506481 213.570645 
L 400.115913 215.014986 
L 401.944207 214.913074 
L 402.553639 216.754882 
L 403.163071 216.834884 
L 404.381934 227.254812 
L 406.210229 228.748326 
L 406.81966 223.577933 
L 407.429092 223.648269 
L 408.038524 222.398254 
L 408.647955 217.739788 
L 411.085682 221.264263 
L 411.695113 225.397374 
L 412.304545 221.152878 
L 412.913976 222.392217 
L 414.742271 222.158759 
L 415.351703 222.715691 
L 415.961134 214.1952 
L 416.570566 213.18884 
L 417.179998 211.817141 
L 419.008293 211.187389 
L 419.617724 207.614949 
L 420.227156 208.087356 
L 420.836587 207.184451 
L 423.274314 206.289398 
L 423.883745 205.150815 
L 424.493177 205.522999 
L 425.102609 210.074042 
L 425.71204 210.962855 
L 427.540335 209.012626 
L 428.149767 212.44732 
L 428.759198 218.977711 
L 429.36863 217.806248 
L 429.978062 218.813954 
L 431.806356 217.064057 
L 432.415788 219.066058 
L 433.02522 221.71623 
L 433.634651 225.914305 
L 434.244083 223.893421 
L 436.072378 224.694178 
L 436.681809 225.423862 
L 437.291241 229.841904 
L 437.900672 232.976961 
L 438.510104 233.541909 
L 440.338399 234.734199 
L 440.947831 238.529333 
L 441.557262 236.82218 
L 442.166694 237.129024 
L 442.776125 237.727283 
L 444.60442 239.685349 
L 445.213852 245.240739 
L 743.835341 245.240739 
L 743.835341 245.240739 
" clip-path="url(#pe7ecda6bd1)" style="fill: none; stroke: #2ca02c; stroke-width: 1.5; stroke-linecap: square"/>
   </g>
   <g id="line2d_20">
    <path d="M 43.78125 271.630281 
L 777.17125 271.630281 
" clip-path="url(#pe7ecda6bd1)" style="fill: none; stroke: #1f77b4; stroke-linecap: square"/>
   </g>
   <g id="patch_3">
    <path d="M 43.78125 399.558125 
L 43.78125 22.318125 
" style="fill: none; stroke: #000000; stroke-width: 0.8; stroke-linejoin: miter; stroke-linecap: square"/>
   </g>
   <g id="patch_4">
    <path d="M 777.17125 399.558125 
L 777.17125 22.318125 
" style="fill: none; stroke: #000000; stroke-width: 0.8; stroke-linejoin: miter; stroke-linecap: square"/>
   </g>
   <g id="patch_5">
    <path d="M 43.78125 399.558125 
L 777.17125 399.558125 
" style="fill: none; stroke: #000000; stroke-width: 0.8; stroke-linejoin: miter; stroke-linecap: square"/>
   </g>
   <g id="patch_6">
    <path d="M 43.78125 22.318125 
L 777.17125 22.318125 
" style="fill: none; stroke: #000000; stroke-width: 0.8; stroke-linejoin: miter; stroke-linecap: square"/>
   </g>
   <g id="text_18">
    <!-- Walk-forward development equity at 1.0 bps -->
    <g transform="translate(276.634063 16.318125) scale(0.12 -0.12)">
     <defs>
      <path id="DejaVuSans-57" d="M 213 4666 
L 850 4666 
L 1831 722 
L 2809 4666 
L 3519 4666 
L 4500 722 
L 5478 4666 
L 6119 4666 
L 4947 0 
L 4153 0 
L 3169 4050 
L 2175 0 
L 1381 0 
L 213 4666 
z
" transform="scale(0.015625)"/>
      <path id="DejaVuSans-61" d="M 2194 1759 
Q 1497 1759 1228 1600 
Q 959 1441 959 1056 
Q 959 750 1161 570 
Q 1363 391 1709 391 
Q 2188 391 2477 730 
Q 2766 1069 2766 1631 
L 2766 1759 
L 2194 1759 
z
M 3341 1997 
L 3341 0 
L 2766 0 
L 2766 531 
Q 2569 213 2275 61 
Q 1981 -91 1556 -91 
Q 1019 -91 701 211 
Q 384 513 384 1019 
Q 384 1609 779 1909 
Q 1175 2209 1959 2209 
L 2766 2209 
L 2766 2266 
Q 2766 2663 2505 2880 
Q 2244 3097 1772 3097 
Q 1472 3097 1187 3025 
Q 903 2953 641 2809 
L 641 3341 
Q 956 3463 1253 3523 
Q 1550 3584 1831 3584 
Q 2591 3584 2966 3190 
Q 3341 2797 3341 1997 
z
" transform="scale(0.015625)"/>
      <path id="DejaVuSans-6b" d="M 581 4863 
L 1159 4863 
L 1159 1991 
L 2875 3500 
L 3609 3500 
L 1753 1863 
L 3688 0 
L 2938 0 
L 1159 1709 
L 1159 0 
L 581 0 
L 581 4863 
z
" transform="scale(0.015625)"/>
      <path id="DejaVuSans-66" d="M 2375 4863 
L 2375 4384 
L 1825 4384 
Q 1516 4384 1395 4259 
Q 1275 4134 1275 3809 
L 1275 3500 
L 2222 3500 
L 2222 3053 
L 1275 3053 
L 1275 0 
L 697 0 
L 697 3053 
L 147 3053 
L 147 3500 
L 697 3500 
L 697 3744 
Q 697 4328 969 4595 
Q 1241 4863 1831 4863 
L 2375 4863 
z
" transform="scale(0.015625)"/>
      <path id="DejaVuSans-72" d="M 2631 2963 
Q 2534 3019 2420 3045 
Q 2306 3072 2169 3072 
Q 1681 3072 1420 2755 
Q 1159 2438 1159 1844 
L 1159 0 
L 581 0 
L 581 3500 
L 1159 3500 
L 1159 2956 
Q 1341 3275 1631 3429 
Q 1922 3584 2338 3584 
Q 2397 3584 2469 3576 
Q 2541 3569 2628 3553 
L 2631 2963 
z
" transform="scale(0.015625)"/>
      <path id="DejaVuSans-77" d="M 269 3500 
L 844 3500 
L 1563 769 
L 2278 3500 
L 2956 3500 
L 3675 769 
L 4391 3500 
L 4966 3500 
L 4050 0 
L 3372 0 
L 2619 2869 
L 1863 0 
L 1184 0 
L 269 3500 
z
" transform="scale(0.015625)"/>
      <path id="DejaVuSans-62" d="M 3116 1747 
Q 3116 2381 2855 2742 
Q 2594 3103 2138 3103 
Q 1681 3103 1420 2742 
Q 1159 2381 1159 1747 
Q 1159 1113 1420 752 
Q 1681 391 2138 391 
Q 2594 391 2855 752 
Q 3116 1113 3116 1747 
z
M 1159 2969 
Q 1341 3281 1617 3432 
Q 1894 3584 2278 3584 
Q 2916 3584 3314 3078 
Q 3713 2572 3713 1747 
Q 3713 922 3314 415 
Q 2916 -91 2278 -91 
Q 1894 -91 1617 61 
Q 1341 213 1159 525 
L 1159 0 
L 581 0 
L 581 4863 
L 1159 4863 
L 1159 2969 
z
" transform="scale(0.015625)"/>
      <path id="DejaVuSans-73" d="M 2834 3397 
L 2834 2853 
Q 2591 2978 2328 3040 
Q 2066 3103 1784 3103 
Q 1356 3103 1142 2972 
Q 928 2841 928 2578 
Q 928 2378 1081 2264 
Q 1234 2150 1697 2047 
L 1894 2003 
Q 2506 1872 2764 1633 
Q 3022 1394 3022 966 
Q 3022 478 2636 193 
Q 2250 -91 1575 -91 
Q 1294 -91 989 -36 
Q 684 19 347 128 
L 347 722 
Q 666 556 975 473 
Q 1284 391 1588 391 
Q 1994 391 2212 530 
Q 2431 669 2431 922 
Q 2431 1156 2273 1281 
Q 2116 1406 1581 1522 
L 1381 1569 
Q 847 1681 609 1914 
Q 372 2147 372 2553 
Q 372 3047 722 3315 
Q 1072 3584 1716 3584 
Q 2034 3584 2315 3537 
Q 2597 3491 2834 3397 
z
" transform="scale(0.015625)"/>
     </defs>
     <use xlink:href="#DejaVuSans-57"/>
     <use xlink:href="#DejaVuSans-61" transform="translate(92.501953 0)"/>
     <use xlink:href="#DejaVuSans-6c" transform="translate(153.78125 0)"/>
     <use xlink:href="#DejaVuSans-6b" transform="translate(181.564453 0)"/>
     <use xlink:href="#DejaVuSans-2d" transform="translate(239.474609 0)"/>
     <use xlink:href="#DejaVuSans-66" transform="translate(275.558594 0)"/>
     <use xlink:href="#DejaVuSans-6f" transform="translate(310.763672 0)"/>
     <use xlink:href="#DejaVuSans-72" transform="translate(371.945312 0)"/>
     <use xlink:href="#DejaVuSans-77" transform="translate(413.058594 0)"/>
     <use xlink:href="#DejaVuSans-61" transform="translate(494.845703 0)"/>
     <use xlink:href="#DejaVuSans-72" transform="translate(556.125 0)"/>
     <use xlink:href="#DejaVuSans-64" transform="translate(595.488281 0)"/>
     <use xlink:href="#DejaVuSans-20" transform="translate(658.964844 0)"/>
     <use xlink:href="#DejaVuSans-64" transform="translate(690.751953 0)"/>
     <use xlink:href="#DejaVuSans-65" transform="translate(754.228516 0)"/>
     <use xlink:href="#DejaVuSans-76" transform="translate(815.751953 0)"/>
     <use xlink:href="#DejaVuSans-65" transform="translate(874.931641 0)"/>
     <use xlink:href="#DejaVuSans-6c" transform="translate(936.455078 0)"/>
     <use xlink:href="#DejaVuSans-6f" transform="translate(964.238281 0)"/>
     <use xlink:href="#DejaVuSans-70" transform="translate(1025.419922 0)"/>
     <use xlink:href="#DejaVuSans-6d" transform="translate(1088.896484 0)"/>
     <use xlink:href="#DejaVuSans-65" transform="translate(1186.308594 0)"/>
     <use xlink:href="#DejaVuSans-6e" transform="translate(1247.832031 0)"/>
     <use xlink:href="#DejaVuSans-74" transform="translate(1311.210938 0)"/>
     <use xlink:href="#DejaVuSans-20" transform="translate(1350.419922 0)"/>
     <use xlink:href="#DejaVuSans-65" transform="translate(1382.207031 0)"/>
     <use xlink:href="#DejaVuSans-71" transform="translate(1443.730469 0)"/>
     <use xlink:href="#DejaVuSans-75" transform="translate(1507.207031 0)"/>
     <use xlink:href="#DejaVuSans-69" transform="translate(1570.585938 0)"/>
     <use xlink:href="#DejaVuSans-74" transform="translate(1598.369141 0)"/>
     <use xlink:href="#DejaVuSans-79" transform="translate(1637.578125 0)"/>
     <use xlink:href="#DejaVuSans-20" transform="translate(1696.757812 0)"/>
     <use xlink:href="#DejaVuSans-61" transform="translate(1728.544922 0)"/>
     <use xlink:href="#DejaVuSans-74" transform="translate(1789.824219 0)"/>
     <use xlink:href="#DejaVuSans-20" transform="translate(1829.033203 0)"/>
     <use xlink:href="#DejaVuSans-31" transform="translate(1860.820312 0)"/>
     <use xlink:href="#DejaVuSans-2e" transform="translate(1924.443359 0)"/>
     <use xlink:href="#DejaVuSans-30" transform="translate(1956.230469 0)"/>
     <use xlink:href="#DejaVuSans-20" transform="translate(2019.853516 0)"/>
     <use xlink:href="#DejaVuSans-62" transform="translate(2051.640625 0)"/>
     <use xlink:href="#DejaVuSans-70" transform="translate(2115.117188 0)"/>
     <use xlink:href="#DejaVuSans-73" transform="translate(2178.59375 0)"/>
    </g>
   </g>
   <g id="legend_1">
    <g id="patch_7">
     <path d="M 559.030625 75.318125 
L 770.17125 75.318125 
Q 772.17125 75.318125 772.17125 73.318125 
L 772.17125 29.318125 
Q 772.17125 27.318125 770.17125 27.318125 
L 559.030625 27.318125 
Q 557.030625 27.318125 557.030625 29.318125 
L 557.030625 73.318125 
Q 557.030625 75.318125 559.030625 75.318125 
z
" style="fill: #ffffff; opacity: 0.8; stroke: #cccccc; stroke-linejoin: miter"/>
    </g>
    <g id="line2d_21">
     <path d="M 561.030625 35.460312 
L 571.030625 35.460312 
L 581.030625 35.460312 
" style="fill: none; stroke: #1f77b4; stroke-width: 1.5; stroke-linecap: square"/>
    </g>
    <g id="text_19">
     <!-- LightGBM | tuned volume assisted -->
     <g transform="translate(589.030625 38.960312) scale(0.1 -0.1)">
      <defs>
       <path id="DejaVuSans-4c" d="M 628 4666 
L 1259 4666 
L 1259 531 
L 3531 531 
L 3531 0 
L 628 0 
L 628 4666 
z
" transform="scale(0.015625)"/>
       <path id="DejaVuSans-67" d="M 2906 1791 
Q 2906 2416 2648 2759 
Q 2391 3103 1925 3103 
Q 1463 3103 1205 2759 
Q 947 2416 947 1791 
Q 947 1169 1205 825 
Q 1463 481 1925 481 
Q 2391 481 2648 825 
Q 2906 1169 2906 1791 
z
M 3481 434 
Q 3481 -459 3084 -895 
Q 2688 -1331 1869 -1331 
Q 1566 -1331 1297 -1286 
Q 1028 -1241 775 -1147 
L 775 -588 
Q 1028 -725 1275 -790 
Q 1522 -856 1778 -856 
Q 2344 -856 2625 -561 
Q 2906 -266 2906 331 
L 2906 616 
Q 2728 306 2450 153 
Q 2172 0 1784 0 
Q 1141 0 747 490 
Q 353 981 353 1791 
Q 353 2603 747 3093 
Q 1141 3584 1784 3584 
Q 2172 3584 2450 3431 
Q 2728 3278 2906 2969 
L 2906 3500 
L 3481 3500 
L 3481 434 
z
" transform="scale(0.015625)"/>
       <path id="DejaVuSans-68" d="M 3513 2113 
L 3513 0 
L 2938 0 
L 2938 2094 
Q 2938 2591 2744 2837 
Q 2550 3084 2163 3084 
Q 1697 3084 1428 2787 
Q 1159 2491 1159 1978 
L 1159 0 
L 581 0 
L 581 4863 
L 1159 4863 
L 1159 2956 
Q 1366 3272 1645 3428 
Q 1925 3584 2291 3584 
Q 2894 3584 3203 3211 
Q 3513 2838 3513 2113 
z
" transform="scale(0.015625)"/>
       <path id="DejaVuSans-47" d="M 3809 666 
L 3809 1919 
L 2778 1919 
L 2778 2438 
L 4434 2438 
L 4434 434 
Q 4069 175 3628 42 
Q 3188 -91 2688 -91 
Q 1594 -91 976 548 
Q 359 1188 359 2328 
Q 359 3472 976 4111 
Q 1594 4750 2688 4750 
Q 3144 4750 3555 4637 
Q 3966 4525 4313 4306 
L 4313 3634 
Q 3963 3931 3569 4081 
Q 3175 4231 2741 4231 
Q 1884 4231 1454 3753 
Q 1025 3275 1025 2328 
Q 1025 1384 1454 906 
Q 1884 428 2741 428 
Q 3075 428 3337 486 
Q 3600 544 3809 666 
z
" transform="scale(0.015625)"/>
       <path id="DejaVuSans-42" d="M 1259 2228 
L 1259 519 
L 2272 519 
Q 2781 519 3026 730 
Q 3272 941 3272 1375 
Q 3272 1813 3026 2020 
Q 2781 2228 2272 2228 
L 1259 2228 
z
M 1259 4147 
L 1259 2741 
L 2194 2741 
Q 2656 2741 2882 2914 
Q 3109 3088 3109 3444 
Q 3109 3797 2882 3972 
Q 2656 4147 2194 4147 
L 1259 4147 
z
M 628 4666 
L 2241 4666 
Q 2963 4666 3353 4366 
Q 3744 4066 3744 3513 
Q 3744 3084 3544 2831 
Q 3344 2578 2956 2516 
Q 3422 2416 3680 2098 
Q 3938 1781 3938 1306 
Q 3938 681 3513 340 
Q 3088 0 2303 0 
L 628 0 
L 628 4666 
z
" transform="scale(0.015625)"/>
       <path id="DejaVuSans-4d" d="M 628 4666 
L 1569 4666 
L 2759 1491 
L 3956 4666 
L 4897 4666 
L 4897 0 
L 4281 0 
L 4281 4097 
L 3078 897 
L 2444 897 
L 1241 4097 
L 1241 0 
L 628 0 
L 628 4666 
z
" transform="scale(0.015625)"/>
       <path id="DejaVuSans-7c" d="M 1344 4891 
L 1344 -1509 
L 813 -1509 
L 813 4891 
L 1344 4891 
z
" transform="scale(0.015625)"/>
      </defs>
      <use xlink:href="#DejaVuSans-4c"/>
      <use xlink:href="#DejaVuSans-69" transform="translate(55.712891 0)"/>
      <use xlink:href="#DejaVuSans-67" transform="translate(83.496094 0)"/>
      <use xlink:href="#DejaVuSans-68" transform="translate(146.972656 0)"/>
      <use xlink:href="#DejaVuSans-74" transform="translate(210.351562 0)"/>
      <use xlink:href="#DejaVuSans-47" transform="translate(249.560547 0)"/>
      <use xlink:href="#DejaVuSans-42" transform="translate(327.050781 0)"/>
      <use xlink:href="#DejaVuSans-4d" transform="translate(395.654297 0)"/>
      <use xlink:href="#DejaVuSans-20" transform="translate(481.933594 0)"/>
      <use xlink:href="#DejaVuSans-7c" transform="translate(513.720703 0)"/>
      <use xlink:href="#DejaVuSans-20" transform="translate(547.412109 0)"/>
      <use xlink:href="#DejaVuSans-74" transform="translate(579.199219 0)"/>
      <use xlink:href="#DejaVuSans-75" transform="translate(618.408203 0)"/>
      <use xlink:href="#DejaVuSans-6e" transform="translate(681.787109 0)"/>
      <use xlink:href="#DejaVuSans-65" transform="translate(745.166016 0)"/>
      <use xlink:href="#DejaVuSans-64" transform="translate(806.689453 0)"/>
      <use xlink:href="#DejaVuSans-20" transform="translate(870.166016 0)"/>
      <use xlink:href="#DejaVuSans-76" transform="translate(901.953125 0)"/>
      <use xlink:href="#DejaVuSans-6f" transform="translate(961.132812 0)"/>
      <use xlink:href="#DejaVuSans-6c" transform="translate(1022.314453 0)"/>
      <use xlink:href="#DejaVuSans-75" transform="translate(1050.097656 0)"/>
      <use xlink:href="#DejaVuSans-6d" transform="translate(1113.476562 0)"/>
      <use xlink:href="#DejaVuSans-65" transform="translate(1210.888672 0)"/>
      <use xlink:href="#DejaVuSans-20" transform="translate(1272.412109 0)"/>
      <use xlink:href="#DejaVuSans-61" transform="translate(1304.199219 0)"/>
      <use xlink:href="#DejaVuSans-73" transform="translate(1365.478516 0)"/>
      <use xlink:href="#DejaVuSans-73" transform="translate(1417.578125 0)"/>
      <use xlink:href="#DejaVuSans-69" transform="translate(1469.677734 0)"/>
      <use xlink:href="#DejaVuSans-73" transform="translate(1497.460938 0)"/>
      <use xlink:href="#DejaVuSans-74" transform="translate(1549.560547 0)"/>
      <use xlink:href="#DejaVuSans-65" transform="translate(1588.769531 0)"/>
      <use xlink:href="#DejaVuSans-64" transform="translate(1650.292969 0)"/>
     </g>
    </g>
    <g id="line2d_22">
     <path d="M 561.030625 50.460312 
L 571.030625 50.460312 
L 581.030625 50.460312 
" style="fill: none; stroke: #ff7f0e; stroke-width: 1.5; stroke-linecap: square"/>
    </g>
    <g id="text_20">
     <!-- LSTM | vanilla volume assisted -->
     <g transform="translate(589.030625 53.960312) scale(0.1 -0.1)">
      <defs>
       <path id="DejaVuSans-53" d="M 3425 4513 
L 3425 3897 
Q 3066 4069 2747 4153 
Q 2428 4238 2131 4238 
Q 1616 4238 1336 4038 
Q 1056 3838 1056 3469 
Q 1056 3159 1242 3001 
Q 1428 2844 1947 2747 
L 2328 2669 
Q 3034 2534 3370 2195 
Q 3706 1856 3706 1288 
Q 3706 609 3251 259 
Q 2797 -91 1919 -91 
Q 1588 -91 1214 -16 
Q 841 59 441 206 
L 441 856 
Q 825 641 1194 531 
Q 1563 422 1919 422 
Q 2459 422 2753 634 
Q 3047 847 3047 1241 
Q 3047 1584 2836 1778 
Q 2625 1972 2144 2069 
L 1759 2144 
Q 1053 2284 737 2584 
Q 422 2884 422 3419 
Q 422 4038 858 4394 
Q 1294 4750 2059 4750 
Q 2388 4750 2728 4690 
Q 3069 4631 3425 4513 
z
" transform="scale(0.015625)"/>
       <path id="DejaVuSans-54" d="M -19 4666 
L 3928 4666 
L 3928 4134 
L 2272 4134 
L 2272 0 
L 1638 0 
L 1638 4134 
L -19 4134 
L -19 4666 
z
" transform="scale(0.015625)"/>
      </defs>
      <use xlink:href="#DejaVuSans-4c"/>
      <use xlink:href="#DejaVuSans-53" transform="translate(55.712891 0)"/>
      <use xlink:href="#DejaVuSans-54" transform="translate(119.189453 0)"/>
      <use xlink:href="#DejaVuSans-4d" transform="translate(180.273438 0)"/>
      <use xlink:href="#DejaVuSans-20" transform="translate(266.552734 0)"/>
      <use xlink:href="#DejaVuSans-7c" transform="translate(298.339844 0)"/>
      <use xlink:href="#DejaVuSans-20" transform="translate(332.03125 0)"/>
      <use xlink:href="#DejaVuSans-76" transform="translate(363.818359 0)"/>
      <use xlink:href="#DejaVuSans-61" transform="translate(422.998047 0)"/>
      <use xlink:href="#DejaVuSans-6e" transform="translate(484.277344 0)"/>
      <use xlink:href="#DejaVuSans-69" transform="translate(547.65625 0)"/>
      <use xlink:href="#DejaVuSans-6c" transform="translate(575.439453 0)"/>
      <use xlink:href="#DejaVuSans-6c" transform="translate(603.222656 0)"/>
      <use xlink:href="#DejaVuSans-61" transform="translate(631.005859 0)"/>
      <use xlink:href="#DejaVuSans-20" transform="translate(692.285156 0)"/>
      <use xlink:href="#DejaVuSans-76" transform="translate(724.072266 0)"/>
      <use xlink:href="#DejaVuSans-6f" transform="translate(783.251953 0)"/>
      <use xlink:href="#DejaVuSans-6c" transform="translate(844.433594 0)"/>
      <use xlink:href="#DejaVuSans-75" transform="translate(872.216797 0)"/>
      <use xlink:href="#DejaVuSans-6d" transform="translate(935.595703 0)"/>
      <use xlink:href="#DejaVuSans-65" transform="translate(1033.007812 0)"/>
      <use xlink:href="#DejaVuSans-20" transform="translate(1094.53125 0)"/>
      <use xlink:href="#DejaVuSans-61" transform="translate(1126.318359 0)"/>
      <use xlink:href="#DejaVuSans-73" transform="translate(1187.597656 0)"/>
      <use xlink:href="#DejaVuSans-73" transform="translate(1239.697266 0)"/>
      <use xlink:href="#DejaVuSans-69" transform="translate(1291.796875 0)"/>
      <use xlink:href="#DejaVuSans-73" transform="translate(1319.580078 0)"/>
      <use xlink:href="#DejaVuSans-74" transform="translate(1371.679688 0)"/>
      <use xlink:href="#DejaVuSans-65" transform="translate(1410.888672 0)"/>
      <use xlink:href="#DejaVuSans-64" transform="translate(1472.412109 0)"/>
     </g>
    </g>
    <g id="line2d_23">
     <path d="M 561.030625 65.460312 
L 571.030625 65.460312 
L 581.030625 65.460312 
" style="fill: none; stroke: #2ca02c; stroke-width: 1.5; stroke-linecap: square"/>
    </g>
    <g id="text_21">
     <!-- CNN-LSTM | vanilla volume assisted -->
     <g transform="translate(589.030625 68.960312) scale(0.1 -0.1)">
      <defs>
       <path id="DejaVuSans-43" d="M 4122 4306 
L 4122 3641 
Q 3803 3938 3442 4084 
Q 3081 4231 2675 4231 
Q 1875 4231 1450 3742 
Q 1025 3253 1025 2328 
Q 1025 1406 1450 917 
Q 1875 428 2675 428 
Q 3081 428 3442 575 
Q 3803 722 4122 1019 
L 4122 359 
Q 3791 134 3420 21 
Q 3050 -91 2638 -91 
Q 1578 -91 968 557 
Q 359 1206 359 2328 
Q 359 3453 968 4101 
Q 1578 4750 2638 4750 
Q 3056 4750 3426 4639 
Q 3797 4528 4122 4306 
z
" transform="scale(0.015625)"/>
       <path id="DejaVuSans-4e" d="M 628 4666 
L 1478 4666 
L 3547 763 
L 3547 4666 
L 4159 4666 
L 4159 0 
L 3309 0 
L 1241 3903 
L 1241 0 
L 628 0 
L 628 4666 
z
" transform="scale(0.015625)"/>
      </defs>
      <use xlink:href="#DejaVuSans-43"/>
      <use xlink:href="#DejaVuSans-4e" transform="translate(69.824219 0)"/>
      <use xlink:href="#DejaVuSans-4e" transform="translate(144.628906 0)"/>
      <use xlink:href="#DejaVuSans-2d" transform="translate(219.433594 0)"/>
      <use xlink:href="#DejaVuSans-4c" transform="translate(255.517578 0)"/>
      <use xlink:href="#DejaVuSans-53" transform="translate(311.230469 0)"/>
      <use xlink:href="#DejaVuSans-54" transform="translate(374.707031 0)"/>
      <use xlink:href="#DejaVuSans-4d" transform="translate(435.791016 0)"/>
      <use xlink:href="#DejaVuSans-20" transform="translate(522.070312 0)"/>
      <use xlink:href="#DejaVuSans-7c" transform="translate(553.857422 0)"/>
      <use xlink:href="#DejaVuSans-20" transform="translate(587.548828 0)"/>
      <use xlink:href="#DejaVuSans-76" transform="translate(619.335938 0)"/>
      <use xlink:href="#DejaVuSans-61" transform="translate(678.515625 0)"/>
      <use xlink:href="#DejaVuSans-6e" transform="translate(739.794922 0)"/>
      <use xlink:href="#DejaVuSans-69" transform="translate(803.173828 0)"/>
      <use xlink:href="#DejaVuSans-6c" transform="translate(830.957031 0)"/>
      <use xlink:href="#DejaVuSans-6c" transform="translate(858.740234 0)"/>
      <use xlink:href="#DejaVuSans-61" transform="translate(886.523438 0)"/>
      <use xlink:href="#DejaVuSans-20" transform="translate(947.802734 0)"/>
      <use xlink:href="#DejaVuSans-76" transform="translate(979.589844 0)"/>
      <use xlink:href="#DejaVuSans-6f" transform="translate(1038.769531 0)"/>
      <use xlink:href="#DejaVuSans-6c" transform="translate(1099.951172 0)"/>
      <use xlink:href="#DejaVuSans-75" transform="translate(1127.734375 0)"/>
      <use xlink:href="#DejaVuSans-6d" transform="translate(1191.113281 0)"/>
      <use xlink:href="#DejaVuSans-65" transform="translate(1288.525391 0)"/>
      <use xlink:href="#DejaVuSans-20" transform="translate(1350.048828 0)"/>
      <use xlink:href="#DejaVuSans-61" transform="translate(1381.835938 0)"/>
      <use xlink:href="#DejaVuSans-73" transform="translate(1443.115234 0)"/>
      <use xlink:href="#DejaVuSans-73" transform="translate(1495.214844 0)"/>
      <use xlink:href="#DejaVuSans-69" transform="translate(1547.314453 0)"/>
      <use xlink:href="#DejaVuSans-73" transform="translate(1575.097656 0)"/>
      <use xlink:href="#DejaVuSans-74" transform="translate(1627.197266 0)"/>
      <use xlink:href="#DejaVuSans-65" transform="translate(1666.40625 0)"/>
      <use xlink:href="#DejaVuSans-64" transform="translate(1727.929688 0)"/>
     </g>
    </g>
   </g>
  </g>
 </g>
 <defs>
  <clipPath id="pe7ecda6bd1">
   <rect x="43.78125" y="22.318125" width="733.39" height="377.24"/>
  </clipPath>
 </defs>
</svg>
